<mxfile host="Electron" modified="2023-09-07T19:45:55.909Z" agent="Mozilla/5.0 (Windows NT 10.0; Win64; x64) AppleWebKit/537.36 (KHTML, like Gecko) draw.io/21.2.8 Chrome/112.0.5615.165 Electron/24.2.0 Safari/537.36" etag="VaxCJjU8D1DIrgP0z4kz" version="21.2.8" type="device">
  <diagram id="C5RBs43oDa-KdzZeNtuy" name="Page-1">
    <mxGraphModel dx="1847" dy="504" grid="1" gridSize="10" guides="1" tooltips="1" connect="1" arrows="1" fold="1" page="1" pageScale="1" pageWidth="827" pageHeight="1169" math="0" shadow="0">
      <root>
        <mxCell id="WIyWlLk6GJQsqaUBKTNV-0" />
        <mxCell id="WIyWlLk6GJQsqaUBKTNV-1" parent="WIyWlLk6GJQsqaUBKTNV-0" />
        <mxCell id="nOhS7p640s0jMjEh398m-0" value="" style="shape=image;verticalLabelPosition=bottom;labelBackgroundColor=default;verticalAlign=top;aspect=fixed;imageAspect=0;image=data:image/png,iVBORw0KGgoAAAANSUhEUgAABI8AAAH5CAYAAAAIth55AAAAAXNSR0IArs4c6QAAAARnQU1BAACxjwv8YQUAAAAJcEhZcwAADsMAAA7DAcdvqGQAAMUtSURBVHhe7N0FYBTXGgXgEw+a4O7uLkUKRQoFCqVo8RanuLu7u7u3SNHiUtwhuDsEDcQ9efvfnY2RPCDGZnM+Op2Ze2clk+wmc/aKmYureyCIiIiIiIiIiIxEYGAgAgIC4OvrCy8vL7i5uuK3Fodx5WJn7QiKTebamoiIiIiIiIjIKEmYRN8OwyMiIiIiIiIiIooQwyMiIiIiIiIiIooQwyMiIiIiIiIiIooQwyMiIiIiIiIiIooQwyMiIiIiIiIiIooQwyMiIiIiIiIiIooQwyMiIiIiIiIiIooQwyMiIiIiIiIiIooQwyMiIiIiIiIiIooQwyMiIiIiIiIiIooQwyMiIiIiIiIiIooQwyMiIiIiIiIiIooQwyMiIiIiolh24PBRtYTnwCFdnW4hIiIyFmYuru6B2jYREcWSXf/uw94Dh+Ht7a2VEFFU2NjYoGb1KqhTq4ZWQvRteHh4YNee/Thz9gI6tmuDPLlzajWhLV62CgGBgeikOyYsuf35C5cwathArYSIKP4J1L1HBgQEwNfXF15eXnB1cUGzlkdw5WJn7QiKTQyPiIhiWddeA3D/wUOkSpkCCRMm0EqJKCo8PDzx9t175MyRHXNnTNJKiWLXq9dvsHLNeiRJkgTXb9xCz66dIgyP5IJImJvrOwLIRZKzswvs7JJiz76DOHP+AkYPG6TqiIjiI4ZHX+/jRy906/Gv2p4zqxbs7W3VdnRgeEREFIukxdHchUsxccwwVCxfVislouhw/OQZDBw2Bl07tWMLJPomJDxyuHYdpYoXQ5+BwzCwb88vanl0685dbNuxGx8+fNT9oW+PYkUK4fTZ8xg9nOEREcVfxhIePXr0AV267Yajo6tWAowc/gN+qZdX2zMeYcMjER1h0qw5ZzjmERFRbJKuatLiiMERUfST15W8vuR1RvSt1KhWRdv6cv/uPYDkyZOhT88/0ejXeipMkosmIiL6trZtv436DTeiaJG0OHOyvQquJDgaOfoIBg05CC8vP+3Iz5MApmiJBbh48aVWEvM+fPDEu/ceapHtyJCv8dUrN4ZHRESxScY4Ylc1opgjry+OJUbfSto0qbWtr/Pw0RMUKVQQaVKnRq6c2ZEubVqthoiIvhVpcbRoyQUUKpgGA/pVgK2tpSqvWSMnfqqZC3v23sONG29UmbHKli0Z9uxqoRbZjgz5uieMq8bwiIiIiIjoW5JBthMlSqjtAYl122x5RET0be3YdUd1VStZMn2o7l4SpqRNm1htnzj1VK2FhE0/1VmrWhfJErJlkrQ6WrHystpu22F7uK2WpJWT3E7WQurluJCtlQytlw4cfICWrbcGPVZErZmkG5scJ4tsi/DuQ563PH9DnSyybSDbDI+IiIiIiL4hKysr+PoGX0R4+/iA0RER0bdj6KolsmS2V+uQenQrq7qwyVpIeCPd26RVkpQfPfQ7nj93wagxR9V9yXG/tymmjl22uJ5qyWNoyRQZq9c4qDGM5HGkZdTM2WeCwqEvZbgPeT4Sksnzr1Aus3r+8lwl7AoZSjE8IiIiIiKKBq5ubmoRtrb6T6lDlkUkdaqUePz4Cfz8/ODm5o6XL19pNUREZEwMrYMMi7TcefXaDZu33kS6dElQt04edZy0VJIWSzHVta1n97LqMSSAypgxaaTGNDLcR44cyVUAJYtsC0Ng9uy5i1oLhkdERERERNHg0mUHDB0xDqPGTVath+YvWoYhI8bizLkL2hHhK1+uDA4dPY4ZcxZizoLFaoY2czMzrZaIiGJbyK5pT55+VGshM6xJyxxprWPg7eWnWhkZWu8YgiVDNzVTwfCIiIiIiCgaVKpYHrOmTVDL8oWz1Xr2tImoXqWydkSwDm1bq2n6Rc3qVdHjzw6oUK4MGvzyM7Jly4KWzZuoOiIi+jakC5e4cOHlJ13CDC1ypHVRmjSJVesfaXn0z+amKlwKuZQokV4dG9cxPCIiIiIi+obMzMyQO1dOfFemlFrnzplDLURE9O1I6CNj/1y7/hqr1lzRSoNnYTN0U5NWSg1/za9aHskg2yK8wa6/lKGlk9zfFQfj6cbM8IiIiIiIiIiIKAwZ6FpaE+3ddz+oO5rqmlYkrSo3TH8vQZN0ZZOuanJM2fJLVPAjxxhaHrVuWVSNKxTRbGvSJc4wULXcx7QZp5Aje+Sm148JZi6u7pzMgYgolrTv0hPm5mZYv3KRVkJE0alZm44ICAjEkvkztRIiIiKKiwIDA3W/0wPg6+sLLy8vuLq4oFnLI6orGMU+hkdERLGI4RFRzGJ4REREZBq+ZXg0ZdpJrFt/VdsjwfCIiCgWMTwiilkMj4iIiEwDWx4ZF455REREREREREREEWJ4REREREREREREEWJ4REREREQUjR49foLLDtfg7OKilfx/T54+U8ude/fhcO26Kvv40RlXrl7H1Ws38NHZWZUZvHr9BmfPX8SFS1fg6uqmlRIREcUchkdERERERNHAx8cHE6fOwoo1G3Dkv+Po3X+oCnhEyz864c7de2pbzJ6/GIuXr1bbq9ZtxLUbtzB91nycOnNeBUMduvbCf8dP4tDRY+jQpRdOnz2vjv137wH0HzwC5y5cwtFjJ9CpWx/cDnG/REREMYHhERERERFRNNi6fRc8PDwwethA9O7eBT/XqomNm7aqOhn4NSQLCwspVNtmun83bt7GvJmT0bn97zhz9gJ++bkWevzZEb26dcbvrZvh3Xsndey6vzbjz45t0a1ze/Tt2RXVq1bG5q07VB0REVFMYXhERERERBQNHK7eQJ7cObU94Je6tTB1wmi17evnp9YG1tbWQYGSmZkZUiRPBktLS7WfN28uFQit27hJdVv7vnw5/FyrhqrzcPdAgfz51LbIlycX7j94qO0RERHFDIZHRERERETRwNraClaWVtpeaAH+AdqWXmBgQKjwKFGihGpb1KhWBcMH94O3tw9Wr/8LHf7siWMnTqk6M3NzWFkFP4aVtTV8fHy1PSIiopjB8IiIiIiIKBpkyZIJb9+/1/agBr/ed+Cw2pZWRQEBwV3XXr9+Gyo8CggIDpe8vLyRNUtm/NG6uWq5VKdWTTXWkQjw98eHjx/VtnByckKyZHbaHhERUcxgeEREREREFA3Kly2DEyfPqPGL3jt9wOEjx3Hj1m1VlylTBly87AA3d3ecOnNOdVMzDIMk4ZGvb3C3tuGjJ+DffQfg7OwCd3cPuLq6ImnSpKqueLEi2L7zX7i6ueH16zfYf+io6tZGREQUkxgeERERERFFAxnvqN3vLbB89ToMHj4GVlaW6Ni2japr3bwpLl+5ir4Dh+P2nXtIlDiR6romJDzS/RdkQJ/uaoDsfoOHo0ffQfD08kLXTu1UXc+uneDt44N+g0Zg/JSZKFGsCBo3/EXVERERxRQzF1f34PazREQUo9p36QlzczOsX7lIKyGi6NSsTUfVNWjJ/JlaCREREcVF0rVXuvT6+vrCy8sLri4uaNbyCK5c7KwdQbGJLY+IiIi+wn/HT6nF8dVrrYSIiIiIyLQxPCIiongpIDAQ02bNV4uMQfKl7t57gJu372h7RERERESmj+ERERHFS48fP8XV6zfx4OFjXL12Uyv9MiEHtiUiIiIiMnUMj4iIKF46efoccmTLqgabPX32fNCU2WLJ8jX4d99BbQ/Yun23KgtLbrNj9z6MmzQDYyZOw7ade0LdDxERERGRKWB4RERE8Y6npxfOnLuAMqVLoEypErhx8w6ev3ip1UK1SArJz88Pd+7d1/aCrdu4BTt370W1Kt+jRrUq2Lp9F/7avE2rJSIiIqLoIjNT0rfD8IiIiOIdaWnk4+OD0iWKIVeu7EiXLo2u7IJWK93SfLUtPWtrKzWDV1gF8+fBb00aqACqdMliqFK5Im7c4nhIRBR1MrZalx79MHzMBNy+e08rJSKKfyQ0UsGRbrGxtoCHR+i/0yh2MDwiIqJ459SZ8/iubCnVmujylasoU6q4KvP09FT1Xl7eam1gZWUVbnc0e3t7XLrsgI7d+qJl2y44eOg/dlsjomhx7/5DpE6VEoP79YK9nZ1WSkQUvxhaG5mbm8PCwgIFCyXDrt38oO5bYHhERETxyu0793Dh0hXd+j62bv9XLSdOncN7pw+47HBdHRMQEKDWBt7eEiZ9GgqNGjcFdnZJMXnccCyZNx3VqlTSaogoPtq9Zz9mzVuEU2fOoXufgRgychzevXuv1QILl6xQdSPHTYLThw/w0r23bPh7i9ofO3Ea9uw/qALovQcO4c2btzAzN8Oa9X/jo7MzXFxdsXz1OgwfMxFTZ87FxcsO2r0SEZk2CY7Mde+HlpaWqPtzJkybfgp/b7rOFkixzMzF1Z0fkRIRxZL2XXqqX37rVy7SSii2LV+9Xs2wNnJIP61Eb+7CZaprWq9uHdGj3xBUrlgODX75WdXJgNhv3r7DrKnj1MDZnl5eaPRrXfzesTtmTB6LfHlyqcCp3+BRSJDAFmNHDFK3o9jXrE1H9X1cMn+mVkIUe/7ddwDr/9qCH6v+gKaNfsXOf/fq3jNWY++OTaq+cYs/kCtnDlSt/D2KFimo3k8CAwPUe42nlzfmL1qGmj9WRcoUyeHs7KICIukOmzJlCixdsQbZsmZR46s9efpMBVEjhvRHwQL51H0TEZkiCdT9/f3VkALyYZ6Hhwdu3nqDHTuf4eYNZ3j7+GtHUkxjeEREFIsYHn1b0rpowJBRqPfzT/i5Vg2tVE/GPFqguxgbN3II/jt+SrUA+LVeHTi+eo2MGdLh8NETmD1tvLrY89H9AfNrvdqYPH0ukiZNomZsO3v+olpv/mcHmjdpiNo/VdffMcUqhkf0Le3ZdxDzFi3Drq0btBKgZt1GuveOCcidKydq/dIEc2dMQvZsWVVdvUYt1H6mjBnUvtx+74HDmDV1vGrFJOHR0IF9cev2HdU6af3KxaobrZCQSlovde3UTu0TEZkiCY/kAzp9gOQDb28feHl56dZeun0/VS71HDYg5jE8IiKKRQyPvq19B46omdNKlyqOVClTaKV6bu7u+O/YKbUtwc/Of/fh3Tsn5M2TS3UtkU+8fqxaGX9t0c+m9n3575A4USLsP3RU3VYGzc6dMzv27j+smlfX/LGKOo5iF8Mj+pb27j+EVWs3YsPqJVoJ8GvT1ujWuT1+qFQBvzRugQ2rliBBggRaXSu1b2Njo/YlLJo+ez7WrVgUKjw6fPQY/tr8j3rPMZAubQl19zN25BB9ARGRiTIESPI3nL+/H3x8fNXfZfp9fzmA4VEsYHhERBSLGB4RxSyGR/Qt7TtwGMtXrcNfa5dpJfrWRf16dUWFcmVRv0lLXd1yWGuth+o3aaWCooQJ9WHSuQuXMGf+EqxZviBUeHT02Ams27gJ40cNVceFlCZNam2LiMg0STBkWCQs0rc2kkUfKjE4ih0cMJuIiIiIKBpIayArK0ttT0/G6JAua0Jd+PgFj89ha2ODh48ea3vQbT9B1iyZtL1g2bNlUV1oYaYPi2Q5duI0Pjg7a0cQEZkuw1T90rJbBs2W7rvW1jaq1aatrS2XWFoYHhERERERRQO5uJEuaV17DVAzpg0ZMRZp06RWU+4L+XBcdbHQ/PpLHcycu1CNlbZ2wyZs27lbV6YfqD+krFkyq3Haxk+aga3bdqmucTIYNz9tJ6L4whAgySJT9ssiQZIhTOIS8wu7rRERxSJ2WyOKWey2Rt/SoSP/Yd3GzVi2cDYOHDoKe3s7lC5ZXKuFGli/SKGCsLXVj3Ekbty8jXv3H6hP0IsXK4I0qVOpcumqJr6vUF793hBXHK7h0ZOnaqyjUiWKIXnyZKqciCi+YXge+xgeERHFIoZHRDGL4RF9S4eOHsOadX9h5ZJ5WgkREZFpYLc1IiIiIqJoIN0p/P0DtD0iIiLTwfCIiIiIiCgaVKlUUc2URkREZGoYHhERERERERERUYQYHhERERERERERUYQYHhERERERERERUYQYHhERERERERERUYQYHhERERERERERUYQYHhERERERERERUYQYHhERERERERERUYQYHhERERERERERUYQYHhERERERERERUYQYHhERERERERERUYTMXFzdA7VtIiKKYe279IS5uRnWr1yklRBRdGrWpiMCAgKxZP5MrYSMwes3b7Fs5Vo8evxEKyGiqMqWNQvatmmBNKlTaSVERDGHLY+IiIiIKMZcvOyA1u264MSpMyo858KFS/Qs8pqS15a8xoiIYhpbHhERxSK2PCKKWWx5ZHzqNmiGdOnSYO3yher9j4iih7zXtfijExwdX2PHlvVaKRFRzGDLIyIiIiKKEdJdzcfXF4P69mBwRBTN5DUlry15jclrjYgoJjE8IiIiIqIY4ePjo9ZJkyZVayKKXobXluG1RkQUUxgeERERERERERFRhBgeERERERERERFRhL4oPHJycsK5s2fVmr4ez1/U8PxFDc9f1PD8EcVdfP1GDc8fUdzF12/U8PxFDc9f1Bjr+fui8Oj+vXt4r3visqavx/MXNTx/UcPzFzXRff5sbGzg4eGp7RFRdJPXl7zOBN//oobnjyju4us3anj+oobnL2qM9fx9UXiUM1cupEieXK3p6/H8RQ3PX9Tw/EVNdJ+/mtWr4O279zh+8oxWQkTRRV5X8vqS15ng+1/U8PwRxV18/UYNz1/U8PxFjbGePzMXV/dAbZuIiGJB114DcP/BQ6RKmQIJEybQSokoKqTFkQRHOXNkx9wZk7RS+taePX+B9l16Yv3KRciSOaNWSkTR5cnT52jWpiOWzJ+JTBkzaKVERNGPA2YTEcUyubDt2qkd7OzsEBAQyMXIF3d3z3DLuRjXIq8neV0xOCIiIiKKfmx5RERE9H/Ua9QC2zet1faI6Guw5RFRzGLLIyKKLWx5REREFIGlK9bA29tbrYmIiIiI4iuGR0REROH46OyCzf/sUNuydtbtExERERHFRwyPiIiIwjF6/GRtS2/0+CnaFhERERFR/MLwiIiIKIzLDtdw89YdbU/vxq3buKIrJyIiIiKKbxgeERERhTFu4jRtK7Sxk8IvJyIiIiIyZQyPiIiIQlj/12a4ubtre6G5ubmreiIiIiKi+IThERERkcbDwxOr1/2l7YVP6uU4IiIiIqL4wszF1T1Q2yYiIorX9uw/qG3pffjwUYVFrZo3QbJk9lqp3k8/VtO2iCgiz56/QPsuPbF+5SJkyZxRKyWi6PLk6XM0a9MRS+bPRKaMGbRSIqLox5ZHREREGgmEQi4Vy3+nymUdto6IiIiIKL5geERERERERERERBFieERERERERERERBFieERERERERERERBHigNlEREQRMAz2a+oDkQYGBsL2bR1tj4yFV6pdMDMz0/biJg6YTRSzOGA2EcUWhkdEREQRiC/hUUBgIBIwPDI6nil3wdyc4RERRSwuh0ev37zFspVr8ejxE62EiKIqW9YsaNumBdKkTqWVRB92WyMiIiJIAxcuxrUQEZmqi5cd0LpdF5w4dUaF5Fy4cImeRV5T8tqS11h0Y8sjIiKiCMSnlkcJ37HlkbHxSMGWR0T0/8XVlkd1GzRDunRpsHb5wjj/PkdkTAICAtHij05wdHyNHVvWa6XRgy2PiIiIiIiIKFZIdzUfX18M6tuDwRFRNJPXlLy25DUmr7XoxPCIiIiIiIiIYoWPj49aJ02aVK2JKHoZXluG11p0YXhEREREREREREQRYnhEREREkCnhuRjXQkRERGQsGB4REREREREREVGEGB4REcVTBw4dVYs4ePg/tRAREREREYXF8IiIKJ569OQpHj56rLYvXnbAu/dOapuIiIiIiCgkhkdERPGIj48vPjq7qG1zMzMEBgaq7b49/0SjX+uqbSIiIiIiopAYHhERxUFbt+1E15790bl7H/y9ZZtWCpy/eBkDho7C7x27oWuv/vhnx26tBjh5+izGTpyKCVNmYPb8xWpAXn10BEydOQ+btu5Q25cdrmHi1JkYNW4y5i1cqh5r2qx5qs7Pzw9LV6xBx6698YfuMcZMmIoXLx1VHcVtMj4zF+NaiIiIiIwFwyMiojhmw99bcPX6TYwfMwxjRgzBsROnsWPXHnx0dsbUGXNRq0Y1rFg0B316dMXGTVtx5twFODl9wPad/6JI4YLo27MrypctjTdv3wFayyMDF1dXdVyG9OnRsV0blCxRDG/fO8HSwlLVr9u4GQ8ePcakcSOwXPcY2bNlwYw5CxAQEKDqiYiIiIjI9DA8IiKKY/YdOIxqVSohaZIkSJkiOdq1aaFCoYuXriB5cntUqlheHZcta2aU/64MLujKn790hIenJ0oWL4ZUKVOgaJFCSJDAVh0X0uvXb/Hu3XuUKFYEadOkRqkSxeDj7YNArY3S6bPnUb1KZdjb2an9GtWr4M7d+3j3/r3aJyIiIiIi08PwiIgojvH09AoKb4QEQVkyZ4LTh4+wt7fXSvXskibFx4/O8HD3gLm5ORInSqjKLSwskMDWNmjMIwMJmPwDApAoUSK1L7ext7dT3dWEi4sLkidPpraF3L+F7hhnbRwlIiIiIiIyPQyPiIjiGAlzPD09tT3A2cUF3t4+SJQwoW7trZXqyb6NtTWsrK1UUOSrhUCy7eMjLYpCs7S0gIyF5O8ffJyXt5du31/t2yZIAC8vL7Ut5HEDdMdY6x6DiIiIiIhME8MjIqI4pmjhgmpQa4OVqzdgxZr1yJc3Nx4+egLHV6+1GuDW7buqXLqq+fn548GDRyoIeun4Ch8+OmtHBUuVMiWsrCzx4OFjFRzJce5uHggM0MdMBfLlwZUQj+1w7QaSJ7NXXdwobgs7WDOXb79Q3HLqzHlMnj5X24tdZ89fjLHHlt8Fd+8/xLGTp3HyzDk8efpMq4m75Pfh31u2Y9K0OTjy3wmtlIiI/h+GR0REcUyD+nVx9doNDB89AUNGjMXtu/fwa73ayJY1C+rXrY0hI8ep2dH6DhqOlClToOaP1ZA5U0aUK1saW7bvxMy5C7Fi9XpkzZJZXRSElDpVSjVm0rad/+r+qJ6NhUtW6O4jOSytrFR9syYNce3GLYwYO1F3oTIHy1auQZtWzWBjY6PqiYhMgbSq7NV/KH7v2B33HjzUSj8vfbo02lbsi4nHfvb8hZqNc+yEadh/4Ch27NqLPgNHYM6CpXB3d9eOinkr125Ej35D0L3vYPSUdZ/B+KNTD6xa+xd8fX21o77c1es31AQQhQrk00qIiOhzzFxc3cP2WiAiIiMn3dEePn4CaZwgoVHI8Ob1m7d4/fqN6t4moZGB/IF9+849uOn+4E+fLm1QF7fcuXKqtZBj3r13wtu372BhaaE7Lh327DsALy9v/NG6uTpGurs9evxUjYOUMWMG2CVNospNkVw4te/SE0vmz0Qm3ddqqiRETPzhZ22PjIWr/U6Ym8ftJkiG19D6lYuQJXPw+5Gx++/4Kaz/eyuyZcmMDOnTomWzxlpNxO4/eKTWOXNkU2sZh+7p0+eqNWc63XvueycnVZ4rR3a1jk5hHzs6yOybU2bMQ9IkidHit0bqwwV5r5DZPucuWIYqlSvqyhtqR8csCY/kaxw6oLdqlefvH4ArV69h2qwF6Nm1IyqWL6sd+XlyP89fvMQG3fe3T48uamy/6Dxvse2J7mesWZuOcer3VFx9XyCKK2LqfYEtj4iI4iAJi/LlyY28uiVsq580qVOhcKECoYIjYWVlhUIF8+O7MqXUANsSGoUMjoQEQqvWbsCJU2fU9Py3b9/FhYtXdI+TSzsCanyjPLlzokD+vCYdHBFR/CVd0EoVL4oypYrj1NnzoSYFWLlmI+o1aoXhYyah/Z+90XfQCBW8v3n7TrXYFE91F8dTZszFX1u2Ycu2Xdi0dTumz1qggnhRvXZDzJ6/BL36D0PHrn3Qsm0X+PjoW9Bs/mcnfqrXFENGjEOXHv3xZ88BKrQXr16/Qc9+Q9XSQXe7wbpjZBw6CaYmTJ2ljvHz98fIsZPRun1X9Rwb/PY75i1aHtTS9Ieav2DuwmXo2X8oOnXri+a/dwr6MCGk8xcuqw8cGtavi3Rp06iJFiwtLVG8aGE0qF8HVSpXUMfV/rWZ6upsMHbidCxetlpt9xk4HP/uO6iOWbB4hbrPhs3+wMBhY9V5a9qqA67fuK2O3XvgsHqu8jVJ6yJp9fXSMbgbtpAgTn7nJUyYAGVLl1IfhDi+1h9TvU4jLFiyAo2at8WNm7dx7fpN3dfWWT3OgKGj0aRle/X4750+6H7HnVXj9a3ZsEkFGdJ1rW7DFug/ZDQ6de+nzoscR0REwRgeERFRkAQJEqhuceYW5li3cRP2HzqCSt+X111AldCOIFPEJshGiuMefRPSTe3UmXP4rmwplCpZDAEBgbgUYqy3bTv3YNrEURg9bAAWz52mxoqTlkrCSwthjp04rcKa/r26YsiAXkiSJIkKmGR2SuHp5YVsWTNjxuQxWDB7igqVTp89r4Kfs+cvYWDf7hg3agjmTJ+gZsE8eOSYut302QtRrEghzJwyVj22dB3bun23qpOZOMW/ew/g8ZNnWLFotnqO82dNVl2Rb925p+olpMqYIR1mTh6LhXOmqvF/JEwJSz65zpolE9KF0x2uds3qKrhRwryBWOh+fwR3iTaDw9Ub2Lx+OTq1b4M9+w+hft1amDhmKKZOGIVffv4JZ85f0H0dHli4ZCW6d2mP8bqve+aUccifLw9Wr/tLu59P3b13X4VmKZLpZwCVx5RWRJvWLVMtiRYvX4Ma1X9QjzNp7HA0+vVnLFmxRnf+CgYFX/J45b8rjfmLV6Brp3aYPG44Fuq+HwUL5MPKNRvUMUREpMfwiIiIQpEuFZ3a/Y7RwwdhxJD+qFfnJ/WJM5kuyShklj0uxrXQt3H6zHmULF4U+fLkQsIECVC6RDFVZph1Mnu2zFi4dKUKXD58/IgBfbqhWpVKqs7g+fMXqoWndB+W988ihQrA19cPAQEBql6+vxXL6btaSeAhEw+8ffcelrpjJ40dhuTJk2HfwSPYvfeAug8PD/0Mm5cdrqJUiaJqW8yaOh7NmjTQ9vSu37iFYkULqfsV0ho1p+59XSZQMPi+QjltC0iZIrl67LACdf+klY+F+f9//zecFwNr3W3ktkK+TvnaEtjaqu0c2bOqgap3/rsPT5+9QNNG9dGuTQvV+keCtxLFiqjbiWKFC+LajZvant7UmfNVi65R46di/JSZunNRXI3nJ+QVYzin8rxv372PsqWDP/iQ7+mDR0+CWn8F6J63fG+kNa3MWpokSSIV4MlSolhhNSEERU6D31rj3IVL2h6ZOpnEZcXqDUFBNpkuhkdERERExohNwmLdR2dnnDx9Dm7uHug3eKRaJIS4c+++GutNjBk+SLX+2bF7H1q2/VN1dfLWupUZSOsea2uroBBQQigzczP4+vmpfSlPkiSx2g4WqLqn9R4wTE1q8ObNO31XtlA/B2awtf3/ExR4eHrpjrHV9vRsbWzg6akPoISMY/Q5KVOkgNOHD+F2aXvx0jGodZF/QOjwSBhm6JQxu+zskqptIUFX5/a/44rDdQwcNhot/uiMy1euqZZYEpxJkGMgX4MhNDMoXCg/CubPh0oVvsOwQX3Qq1tHJEigfa26Uy1Bm4GEQ3LeDeT+AnTP1dA6LCQz3b+jx06GWiQ8pMgJ8A9Qk3r00f0su7q6aaVkDE6fvaB73XVR3VVladOhG3r0HYIVazaoFoBfS8ZGk9vKeJohu/eSaWJ4RERERESkc+GSg2oh1KRhPfzW+Fe1yHaG9OlUixRhY2ON5k0bqi5OG1ctVhMU7N1/WNUZyJg8EtYYAhYnpw8qUJEuYgYyxlxINja2qmvZ3XsPMHrYQLRs1kjNpOns7KwdITNipsC798Fj8Rz+7wTOX7ys7emlSpkCHz9+1Pb0pGWNvV1wsBLyeQgJl8KSse5evHDEhcsOWomefE279xxQYxgJaZkUGKhvUSVkwoWQ3dYMra2EhGYVypdRwc+qJfNQumRxNS6UtH6SAM7NLThokCAvmb29tqf3Y9XK+KlGVVT+vvwnA49LABTysax13yc57wYfPjrD0tIKiRMn0kqC+fr54o9WzTGoX0+1dO3cTq0pcgzfhxu3bqNR89+x4e8tap+Mg7nudThj8ljVcnHimGGqBaB0td2+a492xJd7+/Y9Xr16rV6T9X7+SSslU8XwiIiIvtr6vzZj6sy52h7FdaEaNhBmL3+mFopfpPvVqdPnULJEUdXFKeQi3Z/OnLsINzd3NG7RDtdu3FIBiY+vvoWRpWXorl3SPev6zduq69ODR49x9PhJ1TJGa4ikbuvtHbq1kq2NtereJff59t07FaZs2roDqVKlVC2QZL9ShXLYs++g+pRfZtaU6eYdwwwqLd24jvx3MmgGNmlp8Pr1W5QJ0YUrbOubsBMviDy5cqBu7ZpYuXoDduzeizv3HuDmrTtqLKBDR4+jRHF9F7O0aVOrGdgkdLt0+aoKzoKiI90XHHIq/Tbtu+Hw0RPqa5GubdZWVmrJmCG9GqdIuunJuXFxccWhI8dRscKXz6Im5zfkY1WuWE53fwfVgOJSvnf/IZQvWypUaySDAvnyqnGh5GuQ1l/LVq7DpGlztNq4Qca62vj3FlxxuKa6Lspg5/Iz8PjJU9Ut0FF3gS+DustA4BLMSYsgdw8PdX7ka5ZWcfIakOAnOPyLHBmMPKRVazeiact2apwqMg7yupPQNm2a1PiuTEnVmlJm8RUyiL+8Z8lA92vW/61ePzIZgLQUlDp5Dzxw6D91rIwjJgPpy3vRZt37lbx2ZdB7GRhfZvuS4+/ef6COpbiPU/UTEcVTt+7cVX9s9unxp1by5eTiRfxUo5pamyrDdMKmPlW//KGf9GNdbe/rPHjiiYVrXuDMZWfMHpUbxQrGvRn4XrzyxrGzH/HrT6lgY22OHiPuwsMzAEsm59WO+DZc7Haobj9xWVyaklvGBFq4dBVat2iiZhQLSS68J06drQZ7lq5UMoPam3fvdD8v1vihUgV06fC7Cmk2/7MD0yeNUYNXr1r3Fx7pLsYSJ0qEct+Vxoa/tqpuVjJTZdtOPdRxhi5dcoH1a706aoDnBUtW4vjJM+rirlbNaqpV0MbN/+CXn2upx58+ewEcrt1UrQfKlyuDjm1bqdZHf23epu5TyPOT1kESEtnrHqNZ0wao8F0ZVSePPXXiaCTTunjJbG7yODIIdlhye7mfM+cu4NWrN7C0slQhz49Vfwgae0m6eMl5kwCtcMEC+vBI957STVrvDB+rZuds06KpOla6AC5ftU61sJKfbBmYWgatlgvYp8+eY97C5WoafUvd116mVDF0atdGjd1kmKp/1ND+EY7B94fu65Kp/LNny6L2JWCbPW8Jbt6+o0KsvLlzoWvntrBLmlQNiC6z2g0d2EeNySRB3LyFy1TQJ/dfUPc9kucVtvufMTJMyR3T5BwaFvnZM9N9X+R7I4PAyyQb0gJNBkuX8ychVUTK634OW/zWCJ279+VU/d+AvE9Jq8HZ08YHdfOU97RJ0+cgRfJk6udeZhuUAf3btmmhXtf/7j2o3pOmjB+pWu5J195xk2eolpfSba3voJFqkP9MGdKr16qE7DIWnMzyK+9F/504hXkzJqnHotgRU1P1MzwiIopjDAOIysxojo6vkDpVSt0f57lUGCTdJ9KkTo18eXOrY8TLl454Jn+M6/6gy5Mnl7qQkYukJ0+fqSbltWpUDzpe/miXRT6ZzZc3j5oWWcgf9cJV61Lgr3V5KFyogFrLoLEyVbN8apk1S2Y1QKspiE/hkZ3z14dHOw+8w7xVz1EwT2IcPOGEFdPyxcnw6Pi5jxgy+SEOrC+qwiMXV313oqRJ9D//34pzUoZHcZWEOTJmkXTRsrG2wf2HjzBt1nxMGD1UBSVE0cVwkdj+j1bq91S+PLnVOFTy+9jfP0D3+9pPzeIni9rW/f6WLpPS0kjWattX1r5qrcp9dduflOvXYY8Pug+11t/3/QcPtWf3KelW2f6P1hg/eTrDo2/AEB5J6C1Bn4+vjxrPTbp4dun4BwoVyIdO3fuhbKniaNPyN3WbXv2HoWTxIqq7rpCWg7+16qAPjHQ/c1Iv20ULF1Stknp07YDMGYO/rzK20rEDO7Q9ig0Mj4iISJk9bxHS6C4+5I+zpEmT4vSZc/i9VXNcvOygBg51uHodvbp1RqGC+bFz915s2LQV35UppT5ZunX7DsaPGqouZKQLhjRVlwFK+/fuhr83b8M/O3erLg9v3rxVTY9HDh2AZMns0bPfYNSpVQP/bN+F7yuU1/1B6oeXjq/Qt2dXOFy7jjETpqlmz/Ip05H/Tqj7k8eM6xge/X/LNr6ElaU5smS0RYvuN7BjeeH/Gx55+wRg+UZHHDrpBGsrc9SvmQoNa6eGmRnQYcBt/PRDClUmTpz7iNVbXmF03+xIm8pa1bdskBYzlj5DyUJJ0K9TFixc+0K1GPLyDkCe7AnRQldfNL9+IOBTF52x4i9HPHzqiSSJLFCjcgp0aJZe98dy6DBm0643OHr6A27cdUeB3IlQu2pK7D36HjJkx9yx+lB196F32LD9DRzfeCNDWhv8Vi+Neq5Cnpd9Ukvk1j3+tn3S1ShAfQ1dWul/Xvz8ArFo3QvsP+akWjPJY3RtkxE5s37adSYsZ2l5JCcnDouv4dGlK1dVC6GK5csiRfLkauap3LlyoG3r5qrlBlF0iamLxKj4qV7jT7q+SdemHn92RPWqlePt+4IxMIRH1apWUoPKy9+AqVOnUjNCSrAnuvToj5o/VkXd2jXUfttOPfHLzz/hZ21fujbKoNttWzdD/nx5QoVHtes3C/d7On/WZG2LYkNMvS9wzCMiorhGd+EhXSH69+6OPzu2RdEihdSn3L27d0aXDn+oLgXSCklI//U2LX5Dt87tMaBPd2TOlBHHT51V0zSnS5tGhU0S9Lx3clLjGA0f1E8dK9P058qZHdt3/avuRy52LugeY870SWjcoJ4qMzhx8gx++L686v7WvUsH1K9bG4ePHtNqKU4I80f+lypRKAlaNUyr7X1ejxH3cPjUB3RqkUGFND1H3sPSDS9V3aETwQPbCj//QGze/Sboqcm2dI/7vrS97iLEHJPmP8Hara/QpnE6DPozi+4PYDO07H4Dzi5+uP3AA406Xkf6NDYY1z8Hmv+aFpMXPMGsZeGPYyTBj4RFFcsED84rIZDY958TGne+oUIpCbIK502Mxp2u44ju6xA+voHw9A5Q3ff6d86MOlVToP+4+3C4qW+lN37OY8xY8gzN6qXBkG5Z4K07tlnXG3D6GDw2S3wxc+4ibcv0Sbc3eW+VLlIyWHWliuXwW6P6DI4oXggbHDX45Wfs3LJeBUdkHOrWqqFaFskMiNV++D4oOBKqe6K2LZIlswtqeS6klZmMlZUo0aeDz8vflU0a/qLCopALmQaGR0REcYz8UpeWR9LKR7ZlTIYsmTOpT4/kk70EtgmCpluVKZGTJk2Crdt2qnAoUaKE4U67/PDREyS1S6q6p+07cBj7Dx5Brpw5cOeufnBLeZzcun0Z3yDsxU+Xjm1Rsfx3apYOmVFF+sd7eX36GGS8ItsEuWiBL++iJi2B1m19hcHdsqBaxeRoXj8NGtVJjZev9T8rEhaFJN3H1PWHdhEi4Y48Xs92mVRI8/yVN/LkSIgfdfdVrqQderbNhJUz8sPDK0AFTZnS22BYj6woWzwpGtVOjY4tMmDjjuAwykCeg4G0GKpVJfgPaLFh+2s0rJ0KfTtlRnnd48i6XbP0+GvnG1UvvcrOX3HB2P7Z8X0Ze3RongGpU1jh0nVXVb9ikyMGdc2CJnXToPJ3yTB9RC71tUpLpM+K7DfGCE2dNV8N/hyfFC6YX81iJK2NZDyh8C60iExZieJFsXn9CtWlLuzfDmTEdN8rGbjfoFSJYjh15rway03IwPjyt2T+EEMkGMjA/DIOmrRsF9LKfcQYjndkKhgeERHFMfLnl42VtX5HIwOrhiSDVorhoyfg4OGj6qJFmq2amYX/ti+fIMkfdjIobMhFxlISUpconOmNxbxFy7B0xRoVLMmMOeHNZEPGS31CHDZRiQF3HnioMYSyZgz++Zg5MhdG9Mqmtn20lj4GNjb68Cjomel+8ItoXdKEtPDZfeg9ard2wNhZj3HxmqtqFZQutTXuPfJArmwJYWkZfLGSK2tCPHvphfcfvq7Fz6177kia2BLdht0NWqQr2t2H+oBWrockxLLQxiaysTZTLaNc3fTjJr1644MrN9yCbiutkpLbW+qeo6eqN3WGKbsvXXZAz64xP6gvEX17Mq7X/FlTMG7kECROHPy+TXGDdJc2vHeLhvV/Rob06dC+Sy906dkfM+YsRN+ef6oPJ0XI2SY7t2ujgqd2cmyP/pg9fwl+rPaDVktxHcMjIqK4RvdL3c9ff2FqIANZhiStkIRMJ93jz06oUb2Kah307l34M6DIdK3ubu5o9Gtd1YxZllo1q6O1NkOONGAO+YdESDK1dZtWzfBzrRrqMf7fLCtknKI6LfOXsEtiqYKWiMZ/DtvySAKakLmW3CxRwuA/UOtUS4kL/5ZEk5/1rZc6DbqDX9tfg4enTDUtAWroB5IJmvwDAuEf5nE+R0Kt1Cmt1VhFIZfGWoslCVYT2H46+5MhTJLnH/a2DWulRqrkoQNfUySzXfUbPEJty4WGvL8QkelbuWQesmfLqu2RMZHxKVcvmxc001p45kyfEOr9WgbWHtSvB9auWID5Myfj77VL1YDbQoZAWLt8gRrvSMhsbONGDsbqpfNUd7X1Kxei/HelVR3FfQyPiIjiGLlYlRlOQgq7b621TJJj79y9pwa/3rRlO9KlSwtPT081BofM4iTbMn6SzKyWMWMGNXWxq6ubmrVt7oIl6jbqfnTHhn0MgyRJEuPxk6fw8PBQg2Xb2Fir6Z09dPdNxk1CI1lkwOyYli9nQjWO0Ku3+qbsYuL8J1iw+oXatrUxDxUgPXjsCd2zCwqPRMjgR8YM8vIKQNvf0mP++DzYvKgg9v33XnUXy5rRFi9fhe46KdPxp0xuDXu7r5tBTQYDl/vq1DJD0CKDb7dvnl7VSyAm4xiFlTCBPlCSwEseM+Ttf62VSq1Nmcza+FvLdmrKZhF26nsiIiKKWxgeERHFMdKeQbqIhSQhUUiGlkky5tHqdX9h8IixSJDQVg3aKoNob9uxG6VKFlfT6i5ZvlodO6hfTzVVa99BwzF+ykwUyJ8PjRv+ouqkK1roRwjWoW0rnDl3Ab36D8Xjp0/xU41qugvmhJgweYZ2BBkrQ3gUGEGrss/59/B7tbh7+CNFMis4vvEJKgsrb85EKFUkqZqhzcXNT3X72qM7TkIdId3MTl1whpvuvqRu5SbHUDONqZAmRNe2Oq2vqnGH3rzzUQGTdA8L0K0TJ7RUM6Gdd3BRM6lJCyYZzPpv3Xbd6inVWEphyetHZmy7/9hTDZAd0i81U2HT7jc4cNxJhVd3dM/tjz63MHHuE1Uvz0sGzA7L1lb/ODJeksz6Jvctt99z5D0KVj2Lo6c/qvr/L0RyFodccbiGdp17wMbWBlMmjNJKiYiIKC7jVP1EREQRMPWp+qUroix+fn5I5dVIK/1ybfveUqFIWDUqJcfgbp92Wbh+xx0Dxt/H42f6QTcrlrbH5CE51FhIOw++Q+9R99TU/+nSWGNk72zoOvQudq0sjEzpbVGo2llMH54L1b9Prm57wcEF4+c+wemLzrC2Ntfdh4Waxe3P1vopgpdvdMSCNc9VKCT3WamsPcb0y47EiT7tYiZB08AJD/D0hRcGd82Kyzdc4ekVgCWT86pgatrip1j3zysVRFlbmavnIM9PWkt1GngHH118sXG+vsl+QEAgivx4DgO6ZEGLX9Pq6vwweOIDnLzgrO4rYQJztPstvVo+xznp9k+CYmO398AhzJyzUI1/tnDONDV2GqfkJoo5xjhV/+dwqn6imBVT7wsMj4iIiCIQX8IjGdwyjXdjrZSMRVwLj1asWY+/Nv2DYkUKYcKY4aqMF4lEMYvhERGFFVPvC3Hr4ywiIiKKVtIaJjYGzCbTNmHKDBUc1fyxalBwRERERKaD4REREVG8JumRtkn0lSR47NlvMP47fgq/t2qGnl07aTVERERkShgeERERRUAGChdubm5qTUTBvLy80KpdF9y+cw+D+/dCk4b1tRoiIiIyNQyPiIiIImBvb6fWd+89UGtTwq5qFBWv37xFk5bt8O7de8ycMh7fVyin1RAREZEpYnhERBTHyDT7E6bMxPjJ0zFt5jwsX7UOh48eh2uI1jHHTpxC34EcdySqLCwskChRQhw7eVorMS3BARKDJONkpq2Ny81bd9CmXReYmZlh9bIFyJsnl1ZDREREporhERFRHOTu4YGK5b9DieJFkDRpEhw9dgJjJ06Dw7Xrqj5v7lzo37ub2qaoqfx9Bdy4eVvNSmZydBf/cdnEeU/Ucu+Rh1ZCMe3IfyfQe8BQpE6dCn+tWYpUKVNoNURERGTKGB4REcVRZUuXVMFGw/p10b93d2TJnEnNduTp6YXbd+9h+6492pH6lkiTp8/GiDETsWzlWri5uWs19DnNGjdQ67+3bFNrU6MaH0VTw6NnL70wbMpDlK5zAXuPvtdK/787DzxQ/peL+LHZFbx+66OVfpkPzr54/e7rbkORt+HvLZg0bRby58uDVUvnw8bGRqshIiIiU8fwiIjIBCROnAhVKlfEjVt3cPe+fnyeG7duq/Vlh2uYs2AJKlUsj9YtmqrubdNnz1d19HkpUiRHsaKFsXLNBnh6emqlJkLrthYYDQ2QDhxzQvfh9/DB2Q/ePl/eSuvAcSekSG4FFzc//Hfmo1b65fz8TLnLnfF8bfKesWrtRvxQqSKmTxqrlRIREVF8Yebi6m7Kf3URkY7Nm9raFkWGV6pdamwPYyFjHl247IARg/vByspKKwWcPnxQ4xz90bq56mK1dfsuNZDto8dP8NHZBUULF9SVB+LW7TsYN2k61q9abFRflzHz8PDAr01bI1vWLFgwe6pWGrfJeEfyc+KvW3x8fJDOt6lWEzm7Dr7Dy9fe+L5MMtRp44C5Y3OjZuX/36XJ0ysATf+8jjLF7HQ/o74qeJo/Lo/u51r/cyld0m7fd8eK6fmDeti16XUT2TInwIhe2TBg/H14eAag+x8ZkStbQqz42xE79r/D2/c+SJvaBs3rp0H9mqn0Nwxh0MQH6rHGD8iO5Pb619Ddhx6YvuQZihVMjI7NM6gyA3nM9GlsMH5gDrXv5uGPrkPuoEWDdKhWIRna9L6FquWT4cETT/x35oPu+Zur+2hQ69PH/hrOSXfA3Pzbv0YHDBkJh2s30KxJA7Rq/nU/J8+ev0D7Lj2xfuUiZMmcUSsloujy5OlzNGvTEUvmz0SmjKHfu4wV3xeIYlZMvS+w5RGRieOMSvGHj48vfHx9kUCbXt4gVcqUOHfhInr1G4KOXXupFgSBHCD5qyRMmBAjhw5QQdyQkeO0UlMQfcFEyuRW6BAmdPmcQyeccPu+B6qUS4YfdMvlG65wuBU88LuNjTkePvXS9vQc3/gYGkyFsuPAO/QYfheN6qTGnDG5UaG0Hf7ocwvX73zaRbPyd8mw/5gTzl1x0UqA05dccOOOGyqVSaaVBHNz99e2NLrH37T7rbzBqt1rt93UuEtpUlpj4qCcKFEoCXqPvgfXsLeLY3x17yd/dOqmgqM+Pbp8dXBEREREpoPhEVE8IJ/Yc4n8ElfcuXsPVpaWyJA+nVait3TFGjWd9qhhA9UnED27ddJq6GvIGFPd/+yAi5euqE9MXVxctZq4S/18qwAk6mFi2eJ22taX8fMPVF3WKpa2R7ECiVGmWFKkS22Dg7oyA59wur9JoBQQTnqUQFe+cGJeNPk5NYoVTII/W2VEksSWKtgJq3TRpGo5ed4Z/rrnIS2gzlxyxncl7JA9i612VDBv39CPJ+fNxtpM9zz0+9I46OUbH3RulUF9Hb83TocXjt5qPKe4yunDRzRt1Q4vX77C5HEjUb3qD1oNERERxUcMj4iI4jhpXSaBxj87duP7CuWQNk1qrUbP8dUr5MuTG3Z2SXUXvWa4dPmqVkNfq1aN6hg3aihevHRE4xZ/YOHSlaYxDlLUs6OvdvueOw4e/4BqFZPh1gMPPH3prVofSXgkrYuEdEkLy9rKHIHhDKlUsYw9PL380WnQHdRrexW/tLuqgqHwJslLZmeJymXtcfKCs+pqd/+xB27cdUclXZncf1hyvyFJVzIba3PVDVTI6ypfzoRqW9hqAZebu59WErfcf/AILX7vqFozLl80B4ULFdBqiIiIKL5ieEREFEfNX7QcM2YvwNCR4zBt1jzkzZMbTRrW12oBSwtLtS5cqCB27zugxkqSLmv2dknh4uyCHSFmY6MvV6JYEWz7e60K6uSc1m/SCm3ad8W8Rcuw/+ARnDpzLtaXM+cu4N79h2qmva8RTgOeWHPg+Af4BwRi9MzHaNzpulqWbnipWvAcP6sfOFtaJ4Xl6xcQ7vOWWd6mLnyqAqgh3bJi/IAcKuCJSKXv7OHh6a9aH5255IKUyaxUK6jwhB2UWwJbXynTiqUlkgRGIUmjLgsL+X/cIj9PXXv1171P2GHjmqVIny6tVkNERETxGQfMJjJxcpGT4F0dbY8iwzOlcQ2Y/d/xk9qWnoWFpe4CLw2yZ8uqlein5vf3D8APlSqoQZHPnr8Ix1evkUN3TJHCBXHF4ZrqliIztFHkSVizY/ceFRq9dHylXm/fWgJbW1SvWhktmzVBkiSJtdJPyVMNCPDX/Zz4w9vHB+n9ftNqokbGMPrcgNkfXfzw2583UKpoErRqELqb5aT5T1QYs3hSXoyf+xi7Dr7Hia0lYG4OeHsHoPTPF1CnakqMG5A91IDZzbvdRN0fU2Jod/3r4P5jT9RscQWj+mRXA2eH5eMbqAInCZBkKZwvse5+MqnHDqt2awcUyJ0Ik4fkVPvyNRb58Sz+WVYYtX5IgbJ1L6BxndTo3SGzqn/6wgvZy53G2V0l1fhHkRXbA2bLIPuLl61CzhzZMXvaBN1jR/0zRg6MSxSzOGA2EYUVU+8LDI+ITJxczCZ8/7O2R5HhkWKnUYVHZLz8/Px0S+wPkhwYGABnZxfcuHUH+w4cxtXrN1T5j9V+QK9uncP9+ZX3BgkW5TnLbGvp/ZtpNZGzbd9bbQsYMe0RRvXJpu0Bv9QIPevY1j1v0XnQHfy9sKDqKhbShu2v1e3Xzy2A545eaNXzJg5uKIY8ORJi9eZX2P+fEwrlTaRmPgsZHvUedR/Jk1li3tg8ePLCCxPmPsaFq67o2TYTGtZJrVoWhfXv4fcqrEqc0AJj+2dXYyWFZ8D4Bzh72Rnr5hRQ4dKYWY/x9843WD0rP2pXSYHv6l1EnWopVIsnocKj8qfhsL+0Cp0iyznp9mgJcL6EtJzbuXsvypUtjeGD+2mlUceLRKKYxfCIiMLibGtERERGztLSEra2NrG+yAx7adOmQdUfvsfk8SOxc8t6/Fy7pmoR1bBZG7x+ExzsxJRzl10wb+VztaROYRW0feTUB+2IYDLTmXQvK1fy00G2JUzKksFGzcRWu2pKNK6TBk273ECVxpfx/oMv7JJaBA1ULRImsFDrfp0z49FTL5SqfR7t+t3Cb7+kRZOf02DmsmcqdAqPdFNLk8oa2bMkQKF8EbfS6tQyAyzMzVCp0SU06nRd3S5bJlsEak9ENQ4K81Fc0fyJ1ZhLccGwUeNVcPTrLz9Ha3BEREREpoMtj4hMHFseRR1bHlFcJZ/udu89EF7e3lg8b0aoT5+iu+XRt2CYal8GwM6VLXjA6i8lM7HJANs922VCo9qhB5o3BjHd8ki6LP7Zsz8eP3mKPzu1w8+1amg10YctDIhiVlxseSQfaLRu1wULZ09BoYL5tVIiii7Xrt9Ep+79sGrpfKRJHbr1d1Sw5REREZGJkguJDauXInHiROjcvS+8vLy1mtCMYaymyDBMuf+1wdG+/5yw5d+3mLvyObJmtMX3ZcIfKNuUubq6oVnrDio4GjNicIwER0RE4ZGLWWsrK0yYOito1koiih7ympLXlrzGojM4Emx5RGTi5KIwkRNbHkWFe3K2PKK47eNHZzRt1Q558+TCzCnjVVnIlkfe3t7IENBclccHEh7JzG4Z0tqgVcO0KB7BWEffWky1PHr67Dm69Oir+xkA5s2agqyZM2k10Y8tj4hiVlxseSQuXnbAkBFj1XtcpozptVIiiqpnz1+qv+/GjRqqZgiOTmx5REREX+X02fNYuWaDtkdxgb29HXp374Lbd+6pmfaCBAaqACG+fYpUo1JybFpYEDNH5jLa4CimyAVbhz97IWGChFi/anGMBkdERBGRi1rpUlOhXFnVUoILFy7Rs8hrSl5b0R0cCbY8IjJxbHkUdcbW8uifHbtxSXcBKAPbWlkFzyC1a88+HDl6AtMmjdFKYoaERzdu3ka731tqJRRXNGnRVnVhW7Zwtr7lkb8/fP1kqn5vZIxHLY/iiuhuebR77wHMmb8YmTNlxPzZU2FpoR9sPCax5RFRzIqrLY+IKO5hyyMiIvoqObNnQ706P2l7FJe0bNYYL146qvFugsXDpkfx0NKVa1RwVKJ4UTV4emwER0RERGQ6GB4RxQPSaIZL5Je4avmqdWjZtjMGDBmJ5m06YvW6jVoN8GuTVli7YRMa/tYGDx4+wvUbt1RXlm69B6JLj37oO2g43r93UscuW7kWi5etQttO3dWU3vd1x0+cNkvVyWxNckH6R8du6K97nEbNfsfW7btUHRkfmcpfnDpzTq2/ZWa0bd9bjJv9GKs2O2olFFPGTpyGzVt3oPZPP2LcyCH6QiIiIqKvwPCIiCiOOn/xsgoBDEtI5y5cwqEjxzBz8jhMGjdSdWX7d+9BXLtxU9X7+fvD08sLG9csRYoUybFp63Z8X+E7zJ42AXOmT0SSxInx774D6ljpsufi6oohA3pjxJD+qsxLd1ux/9BR3Lh1B/NmTsZk3eOMHzMMK1avw0vHV6qejEuCBAlUV0cZ98ZAjXkk//sGjp/7qG1RTJDva/c+A3Hi1BnVzbRb5/ZaDREREdHXYXhERBRH7T94JNRy4eIVrQa4dv0mChfKr4IhkTZNauTOlQM3b91R+6JyxXKwtLSEvZ0dRg0biCqVv1ctkGQ8JTne2cVVHSetr2S2ruzZsqrjQ7p67QZKFi+qQgmRK0d2NeZCyMch45LM3l51XftWgVFIPr7sLxdTPDw90eKPTrh77wGGDuyLhvXrajVEREREX++LwiMnJyecO3tWrenr8fxFDc9f1PC8RZ2x/vxJS6Bhg/oGLSVLFNVqADd3dyRKmFDb05OAx83NXW1LIJQsmb3aFkuWr8bIsZNw9NhJXLt5CzLFp4GZmbmarSs86nESJdL29ORx3D081DZfv1ETE+fPxsYaPj4+uq2QfTIjF+J8dPHDkEkPUKnhJZStewG/97mFa7eDx1P6resN/LP3rbanb2kkZa/eyuOHdu+RJ/4ccgflf7mI8vUvotfIe3j97tPjDH778wZO6O6vebcbKFnrPBp3uo77jz212k9duu6KTgPvoHKjS2jX7zau3tI/z3X/vFLPydMr+Ge+w4Db6hgxecET9VhTFj5VX+OTF164eNUVHXXHyH3VauWgut+5ufur4318AzBt8VNU++0ySte5gCZdruPQiQ+qLrY4vnqNpi3b6X5uPqiWhBXKldFqvg5fv0RxF1+/UcPzFzU8f1FjrOfvi8Kj+/fu4b3uicuavh7PX9Tw/EWNnDfpdsQl8st73QWYsf78WVhYBC0hSesSVy0oMnB3d1czbQUJkRfs/Hcv+vXqim5d2uOPVs11x+rDH6E7BaprU3iS2dvpHifk4MvyOB5IrAVKfP1GTUyfP/33NTDSYx+NmvEIJ847Y1z/7Fg0MS+sLM3Qbdhd+Pvr7/HcZRe1NpDyfUffh/vz1HPkXXh4BWDWqFyYPjwXrt91x9DJD7XaT23a/QbTFj9Dm8bpMG9cHrx18lVBT3iu3HBFgw7XULRAYkzT3XfmDDZo1Ok6nr7wgo21OS44fPo8DS2z5D3A6aMvHG66ofsfmVSdhGTp0thg9ujc6NcpM05ecMbomY/U8ZPmPcXS9S/Ru31mLJ+WDyUKJUGrnjdx817o12NMkdaDv3foCktLC6xdsRC5cubQar4eX79EcRdfv1HD8xc1PH9RY6zn74vCo5y5ciFF8uRqTV+P5y9qeP6ihuct6lIkTxbnzmOxIoXgcPU6Xrx4qfYfP3mKew8eoqiuXM8Mvr6+2rbsmcHHx1ddMF92uIbkKZIhwD9AfwGtu3gOeWxIJYoVwdlzF/Dhg37sGuku9/rNGxQpVEDt8/UbNbFx/iIbHIlaP6RAxxYZUKG0PYrkT4xmv6TBlZtucHyjbzHk6xf63m1tzPXBUZj06J2TL7q2yYgfv0+OkkWSokyxpKhfMxXOXQkd6oQUEBCI3xunQ/WKydXxdaqmwPkIjl+y/iUK502snquEOf06ZUHz+mlw/JwzvH2CWxwZ2Biep465GXDewQVTh+VUX599Uku8fe+DPDkSonC+xPihXDIM7Z4VPdtlUsev2/YKXVpnRK0qKVAwTyL1WOnSWGP3ofeqPiYdPPKfGuw+Xdo02Lh6qfrZiQq+foniLr5+o4bnL2p4/qLGWM/fF4VHyXVPvHSZMmpNX4/nL2p4/qKG5y3q4uLPX6GC+dGg/s8YMXYSevYbjHGTpqN5k4bIkyunqk+SJDECQlzAN6hfF1NmzlXHHj12Arlz5sDps+cxd8ES3cWzme5COvQFtrWVtVp/X6EcKpQri/5DR6rbzpy7EN06d0DKlClUPV+/UROz50/3/Q/Zcy0ScmZLgPuPPFSXsRrNr6juW3K3hh8tX98wPzfW+lAmTHaElMmt1HL5uit+bX8NPza7gn/2vPnkuLAknDGQ+3bVuo6FdfuBB7JlTqBa0YkEtuYY3jObCpA8PMMJj6zMda8P/bbcJlN6WyS314/3ldzeCs1/TYuuQ++icefrQa2d0qW2Ues373yQO3twl1G5fZYMtnj0LOIuddFh7Ya/MXXGXBQqkB8rFs/VnQ/9azQq+Polirv4+o0anr+o4fmLGmM9fxwwm4gojqlftzbGjBisZs0Kqc5PNdSsagaNfq2HpQtmYeaU8Vgyfybq1vlJq9FdaC5fiAzp02l7QKvmTbBSd8E5a+oE9OrWWQVCG1YvQbcuHdCyWRMMGdBHOxL4rkwpzJgyTm1Ll57fWzXDknkz1eMsWzgbVSpXVHUUB2hJTmQHz5axgO499lQteqRlzvBe2WAe4i8LP637moGvrzyWypdCuffIA/X+uKq7rRl6t8+E6SNyoVGd1FptxKSFUEgWFuGnYRL4RMTQxS4kH7/Q3dYkbLKQJkiaKUNyYt+6IqhU1h5Xb7mjcuNLmLJQHyLJrUKeAyEBUniPE12mzJiDtRs2oVqVSpgyYZRWSkRERBR9GB4RxQNy4cIl8gsRhU/GAZLuZlUrJEOhvIlx654H/EM0/klgYx6q69rdhx6QEZbCZlUyeLUETYO6ZlFd4KRF0Z0HweNuRcTLO3SroYQJQo/9ZVAgdyI8ee6l7enJeE0L1rxAooQW6jmHDHcePNE9T21X3gP8VJik35dBwm/fd0fJwknxZ+uMWDs7P4b1yIZ/9ugHBk+dwhqPn4V+rBevfFTrpZgg3dQOHTmGls0ao2/PrlopERERUfRieERERBTvhUlzvpCENRevusDZxQ87D7zDgWNO8A8IhJOzL27dc0e+XIlw9PQHvHnvo7qkycxmIVvwGKRKbg13jwCcuuCMdx98sfwvR9WKyN3TX913RMKGR7Y24ae9P1dLiQPHnbBp1xs1vtKyjS+xYPULVCxtr4KlF6+8cfjkBzUw9spNjsiWMUFweKT7S0nGRTJ085RZ26o0vYzNu9+obnKv3vio26fVuq01rJ1a3YcEaxI0rfjbEU+ee6J2VX1XzugiM+a1ad9VDZDdr3c3NG/aSKshIiIiin4Mj4hMXGS7oxBRPBLJt4mx/bNj8fqXKP3zBfy18w1mjc6Fuj+mROueN+EfADUT2ZmLLqhQ/yKGTXmoOz4H8udOFPS+lCm9PnCpWMYevTtkQt8x91GpwSU13b90hcuVNQF+auWgjgmrbHG7oIDHQLqYhadE4SSYNzY3pi/RT7e/bIMjZozMpVo4FSuYBH06ZkLv0fdQudFl3LjrDruklkFhkYz5lSSxfrwjUaVcMkwYkAOzlj9Hnu9Po4zu/lxc/TBpsH5WMxk8u3xJOzXDWhndeVm79ZXusfOgWIEkqj46vHvvhCYt2+HV69eYOnE0qlb+XqshIiIiihlmLq7uvLIkMlFygSYzEtm71tNKKDJc7HZEeFFKFNe079JTrRfNnQ4/Pz/4+vrBy9sLWc1bq/LYcvGqq7alD3foU85Jt8M8zABKd+89QI++g2BtZYVF82YgbZrPjw31Lb1+8xat23XBwtlT1ED+RBS9ZJbTTt37YdXS+UiTOpVWSkQU/djyiMjEhZ0li8hApvI3LBSfBUa65VFUSGBkWOjLHD95Bt37DFTT925cs9TogyMhF7MSdE2YOkt9mEFE0UdeU/LaktcYgyMiimlseURkoqTVkSzSsiCFRwOtlCLDWFseXb95Gzdv3YazswsSJ06EXDmyo1jRwrCwsMCxE6ewY9de1aUlIhIa7dqzDyWLF0ON6lW00i/z95ZtyJ83DwoWyKeVRK/J02cjc6aMaNroV62Eoouh5dHCOdPg7+8PX19feHl5IatFG1VOxiNky6NNW7dj2cq1yJMrJ2ZOHR+nWkNevOyAISPGqq8lU8b0WikRRdWz5y8REBCAcaOGokSxIlopEVHMYMsjIhNmCJDItEg3ow1/b8HseYvg5uaOVKlS6i7+vbF4+WosXbFG/SGZzN4erVs01W4RMQkPImP7rj3aVvTw0z0PmTXK2cVF7f/0YzUUyJdXbVPMkbcHw0LGx/D+PXv+YhUcVSz/HWZNmxDnutHKRa10qalQrqxqKcGFC5foWeQ1Ja8tBkdEFBvY8ojIRMlFh4QIMiNPau/GWilFhrG1PDp45D+s37gZPbp2QuGC+YOe2+UrV7Fq7UY0/LWu+t67uXugVo1qqs7D0xMnT51V4YyMOyKtF6Tl0fZd/6JMqZKq5ZEESf+dOIWXLx2RMEECfFe2NNKlTaNuH1bz3ztiUN+e4bY8kp+9E6fO4MnTZ0iUKBG+K10SaUPcj5RLSwRbGxt1MZwkSWLsO3AY/+zYjfp1ayNFiuR48/adOlaOEVUqV1RrcfjocbWWsg8fP6rH+vjRGSlTpkSlCuWQMGECVU/hC255ZBjzyEe1PMpm+bsqJ+PxMck2DB89Qb1eGjWoh7atW2g1RERERLGLLY+ITBxbFJie8xcuo0ypEqGCI1G0SGGMGj4Q5b8ro/b3Hzys1m/fvcfAoaPw0vEVrCwtMXnabOzdf0jVGUjgM2HKTJw4eQZpUqeGu6cn+g4cpoKerzVr7iLs2LVHhUAfPnxE7wHD8PjJU1V34NBRjJ88A5a65/Hq9RvV2sjpwwcV/rh7eKi1uH7jJlxcXBCo+7dx01ZVZrB3/0E4OzurIKyP7r5fOr5GurRpcfv2XYwYM1EFpvQl5M1BWifyfcIY+fkDnbr1UcFR9z87MDgiIiKib4rhEZEJY5c10/T27TvVIihsayjZtUua9JPyzVu3I2vmzKobW72fa6HRr/Vw/+EjrVbv1p27OHf+Ivr0/BPVq1ZGy98aq/GT9mkB1Jd6+uw5Dh4+in69u6uuZ3+0bo4a1X/AHi2sWrF6Hdr/0Qp1a9dUdTmyZ8XxE6eRP18eVV+zRlWULF5UbQtpku/k9AGPHj9R+9IiSZ575UoVVGsladHUsW1rVKtSSV1gv3n7Vl1s0xdgaGS0Prqa4eduNnj2/AXGjx6KWjWqazVERERE3wbDIyJTFzpH+GoXHFyw8m9HHD75QSv5Mp0G3kHHAbe1PYpONjbW+qToC9178BCZM2fU9oCaP1ZF107ttD29589fIlOmjKq7mkGmjBnw7NkLbe/LyMWujMG0acs2zFu4VC0yLpOhBdOHj87IkS2r2hb9e3dXgVZEbKyt8V3ZUjh5+qzal3XRwgXVmE5yn1kzZ1LlQgYKz5AhPZ6/eKmV0JdihmQ8Hjw3Q91uNvDwNFODmhcvyrFMiIiI6NtjeERE4ZKBGFdtckT/8Q8wfcnnuy5JuNS0yw1tDyiSPzGKFuAU3DFBWttIF7TwSOuhsC3OkiT5/PdBbmNuLoFUcCglLZj8AwK0vS/jJ31tdIoULhRqqfNTDVWufEXwJX74vgJOnj6nto+fPI0qlb9X25J4GGaiMjDX3beM90SfF6h9G9TPC5sgGYXTDuZoNdgGSRIHYudcbxXgEhERERkDhkdEpi6S14RL1r/Eun9eo1PLDLoLcq0wAk9feuHOQw/4BwSqbVkqfWevFop+RQoVxNlzF+Bw7bpWoudw7QYWLl2JYydOayV6ObNnw4sXjtoecPb8RdUiKCRpseP46jUCAoJnX3v16g3Sp0ur7X2ZDOnTqnGOChfKjwrlyqjF0tICJYvrW09kSJ8OT0OMozR91nysWf+3the+QgULwNPTU3WJk25rhm5tGXUX1i8cg78uCUFev3mLtGnCH+SbwpI3B93ydVkexZAtBy3Qd5o1cmQKxI7Z3kiaiIEeERERGQ+GR0QmLirjHs0alQuZ0tvg3QdfrSR8G7a9xrxVz3HrvjvqtL6Kx8+8MHvZc8xaqg8J/PwDMWjiA6QuehzFap5DuuIn0LzbDbx+qx/YePlfjiha4xzGzXmM4jXPo2DVs8hU+iT2H3NS9WKm7r6ylD2FIj+eQ7bvTuGnlg64estNq/1UqiLHVfhVuPo59Zh2+Y6p52gKyn9XGuXKlsa8hcvU7Gr/7j2AdRs3YcHi5ahUsRwqli+rjjO0ypFZyc6cv4A9+w6q4GjTlu1ImtTQGkmfHOTPmxu5cmTHomWrcP3mLew/eAQnTp9B9SqVVH1YMvD2tRu3sOHvraGWnLr7KFmiKOYvWoYrV6+rbmZLV6zBqTPn1e1qVKuCNRv+VoN+/7vvAI6fOq2+HitrK3h4eOLsuYs4cPioOtbAyspSzcomrY/K675uW1tbVV5V93XduHEb23b+i5u37mDthk26Y61QumQxVU+fp94ddO8RUXmfoKibvd4S01dboVzRAKwe5w0L/nVGRERERoZ/nhCZuki2KvijaXrky5VI2/v/WjVMh5qVUyBfzkTYt64ocmVLqNXord3yCgtWv8D6OQVweW9pHN9aAs6ufpg4Tz8IsvRiev/BFz4+gTi6qRhObiuB0kWTqrGWxH9nPmLI5IcY1z87Lu0phTM7SiJzBhuMmBZ60OeQPjr7Yf+x9ziwvihOby+J7n9kxKK1L3WPEfe7NElAIoNNt2zWBL6+vrh77wE8Pb3QqnkT3dI0KDQqXrSwWktrnxGD+6tBp1W3rx8qosVvjVVd9mxZ1FpuM3r4ICRPZq/CqEdPnmLM8MHIkzuXqg9LBqj29/f7ZBGD+/dGXt3tZODsyw7X0LFdm6Cp9mW6cbntfydO4tGjJxg7YojuOWRFnlw50bxpQ9y+e08dF7bFU+XvK6hp5YO6rOmkTp0KUyaMUgOI79qzX3W7mzhmOBKEGLeJ/g8tL9KvGB59KwNnWuOvvZZoWN0fU3pzpkAiIiIyTmYuru78i5HIBMmYRdIFSaYtT+PTRCv9eqcvOaNRx+tYPTM/qpRPppV+qu/Y+3jy3AubFhZU+zJgtrRmWDQpL3778wYS2Jpj6ZS8qk5s3fMWw6Y+xK0jZbFykyN6j7qHi3tKIVsm/YX/mJmPsW3fW1U2dPJDHDv3EUf/Dm5R4nDTDWXrXoT3w8paSWhWWY9g+/LCqFUlhdrfvv8dWve8iasHSyNzen3LlS/lYrfjkxnMiOKq9l16qtZGC+ZMU+Gjt+49wsvLC7lsQg+iTjFLhuZqO8Iad5+Yo3tzPzSpoQ9fQ/qYZJsaCJ6IiIjoW2PLIyITZcg6jKE7ynNHL1y/645iNc8HLZMXPoWLq358HXmuyeyskD6NjdoXZrp3J2+tldCLV97w8g4IdfuOg+7oLqpUdfh095klY3BIJI/h6xugW5iXE8mrQN4b1PuD2lHFFEvcPIBfetio4GhiT59wgyMiIiIiY8LwiMhEGUFmFES6E5UvYYdVM/IHLYsn5sXuVfpBlKVVj4RFFmFG5ray1O9LXZoU1p/c/tS2kqo+ImHvz0J3f5YWocuISEIkbZNi3LNXZqjTzRYfXM2wcowPKhbn7IBERERk/BgeEZkoaWkTXa2OwsyG/tXy5kyIe489UDhfIhQtIFP4J4bjG28kt7dU9ZLxSIsgQ0sjg4QJ9U2L8uZIiAdPPJE/d8Kg29vamMPW9v8/MWmtFJLcxka3EFEwfcMjBhix4dItczTtbwMbK2D7LG/kyvL/z7tqGMZkj4iIiIwAr6KITFxkLzzmrnyulotXXZHczgo377kHlYXHxspczZ6258h7bN79RivVa1o3DU5fdMHURU9x/Y47jpz6gOlLnqlFSMsjP79A+ITpUib3KRrWSg3/gEAMmfQQl6+74ryDC8bPfazbf6DqIxI2PLKyNA9qzUQU3wW9Ncia+USM233MAt0mWCNT2kDsmuule1/9kpPObwwREREZB4ZHRCYqqp9WS0Bz5pJ+KZg3cdD2rXvu2hGh1a6WAmlTWwcFQiH9UC4ZVs3Ih3NXXNCi+w2MmP4I35exV7OnCWklVaZYUrUOyd5O3zIpe5YE6vZv3vugbb/b6DbsLtKktMacMblVfXh+rpbykxZT8hgSUsVnjx4/xfZde9Ti7c2ZneI3/ZhH+n8UkxZvtsT4pVYokT8AGyd7w0r/1kZEREQUZ3C2NSITFRAQAH9/f3h5eyO9329aKUWGsc629vrNG0ybOR8pUiTHgD7dtdL/Tx8e/YsM6dKhbp2fYGNjrdVQfCGzrUloNG/mFDXbmszI6OHpiXyJOmpHUHQaucAKB05boM73/hjUzlcr/TIfEv+jZlvjbI9ERET0rbHlEZEJU62PotgCiYzXhYtXYG9vh7v37uOObiH6csFhhL7dEd8nopuc0Y6jrVVw1KGh31cHR0RERETGhOEREVEc5O3tjXMXLqFwoQIoWrgQzl+4rNXo9Rk4DM+ev9T2gEnTZmH9X5u1vWD3Hz7CiDET0aptF7Tr3AMrVq+PcpdHigt032NDfsTsKNp5eQMNe9vg+n1zjOrii9Z1ORU/ERERxW0Mj4hMXGCIFgZkOm7cvI33Tk4oVbwoShQvgvMXL+HDx49aLfDkaeixp/SN0D5NCBYuXoEC+fNi1dJ5GD96GA7/dxwnTp3Rask0Bf8cGEY8YmAYfV6/N0OdrrZqvWi4D6qV9ddqiIiIiOIuhkdEpo4XhSbprLQ6KlgAqVOnQoliRWBjbY0rDte1Wv2YVyFZW1uFGxBMGDscVSt/D1c3N5ibmyNnjmx4/eatVkumKDBQC5RVoqjfpOghLY0a9LZRp3XLdG8UzPn/p+L/HL59ExERkbFgeERkwtS1Ia8+TM5Lx1e4fOUqkiRJgo2b/sHW7btRtEhh1frIEBqFDY8sLSzCvRDdvHWH6uI2buI0zJq7EL6+7F4TX8iPg6HVEd8nou7gGQs1xlHq5IHYPdcLaVLwnBIREZHpYHhERBTHyFhHKVMkh7+/X9ASEOCPO3fv4/6DR9pRobm6uYcbEGzctAXDBvXFpHEjMWbE4E9CJzJBQWMdBf88SIhEkbd6pyVGzLdSLY2kxZGtjVYRZfy+EBERkXFgeERE9BnG1CjDw8MD585fRMkSxdDit8ZBS9PGDZAjezbV+kgkSJAA7969U9vOLi5qfKTwwiOZBjx1qlRq++69B0iaJInapnhCfiR0CxseRd6EZVZYtMlSjW0kYxxxVn0iIiIyRQyPiEya6pSibVOkGdHF4LUbt/DhozNKlSimlehJt7RSJYqqVkmiepXKmD57PsZPnqGWXDmyhxse5c6VE2MmTsW4SdOxcdNWpEqZAgcOHcXfW7ZpR5CpCf3jrHVZY3oUKd0nWmPXfxZqNjWZVY2IiIjIVJm5uLrzL0YiEyPXgdL9yNfPF15eXsgU2EKrochwttsB8zjYnODe/YfqZyB7tqxwdXVTZW5u7nj+4oXaLl2yBCwszHH/wUM1WLYESeLJ0+dIkjgRkidPpvbJtLTv0lMFRnOmT4SPjy+8vb3g7u6Jwsm6akfQ58jQYC0H2+DZKzMMaueLOt/HzIxq7xNthZWlJczYnImIiIi+MbY8IjJBcp2hrjV0F4jhtTahrxNXL9ty5cyO/HnzwNbGRrUokiVb1syoWP47tdjYWMNSd2GaN0/uoOBIZMmckcFRPKLeIvg+8cWcnGUqfn1wNHugT4wFR4KRERERERkLhkdEJoqhUfThmSTTov+JlrcIeZ8w/KPPu/fUHPV62MDbxwwbJ3ujRH4OME9ERETxA8MjIhMUKjfiNSERaVRYFPSeIBt8g/hSJy6Zo81Qa9gnCcSuuV7IlDbmzx27qxEREZGx4JhHRCZILg5l6nZfHx94enkjs1lLrYYiwznpdjUmEFFcJ+GRjHkkZk+dAB9fH3jp3iM8PD3h4uICF2cXNU6ajJkm5A+E4PzCTN+NKkSeoUq0A/R1wZX6fflP/U/tfHpfhrIQ+7Kl/y/ofyHuVva0rRDbsgpxjAh5XJCgww0bhj+B9PuGsEYFbLpNdZzuvzNnL2DP/kNIlzYNOrVrDTPd+4H+yNBChj0RbQvDvty/ublusbCAlbU1EiZIgES6xcbWBlZWVmo2RHnvCXt7IiIiotjG8IjIRPn5+cHX1xeenl7IYt5KK6XIYHhEpiJUeDRNBsz2gbe3t+59whOubm5wdXVVZYEBuj8NgvIKfdSiAgwVYuj/bJB9fagha61eO1b+p+rVRvC2Okb9F1yu9lS97Ov/py/X14c+Vjal3rAlK329oq0lEzIcr6c/Rl8i/9d/ffp9YdjR7lNot9+0dTv+O34KhQvmR8d2raVClWuHG/6nBNXo/9MLrtbRnrucQnWMFh6ZW6igyMraCtZW1rCysgwVHIX+WoiIiIhiH8MjIhMVHB55Iou5XPBQZDE8IlMRMjxSs63p3iN8vKX1kRc8PDxUCyR57wjR9EatJbuQGQfNzHSvA604KNTQ1kGLuknIMu1YdT/6RQr1x2l1uvsNfTvZEfptdbSUqyJZ68v1tI2gfT39sWoziHYP4VLPK4xps+fjisM11KxeBc2bNlL39//uI4jhuQaJ6E8t+TpCBkjmKjQyLPpz8QWPR0RERBTDGB4RmSg/P3/VgkDCo6wWDI+iguERmQoJjzrIVP267bkzJqnwyNfHV3Vfk2n7JXAO8NdmDzMEJSrAkPBI6z6lBRpqUws/gkIOVa1K9dvyL2Sd3K3aVkdEsJZ69Z8UGDZ09Meo238tuYkKxEQEt9cVG2qk216/wSPx5OkztG3TAj/9WFWriW66r0keV75u3XuMBHTyXhOyxVGkvl4iIiKiaMbwiMgEyQWihEe+ugtCaUmQzaKNVkOR8THpdlgwPCITIS2P5D1i3szJ6n1CWhqpxd8PAf4BCNDVGeIKM3P9lgoxVNChhRlqX630+6Hq1H9aWXC9Viil2q5hHVRq2NFuozFsy18ruk39kSGDoMj8GRPe7fSP4+bmhi49+8HZ2QXDBvVDyeJFVXnQEwgS3u3/3zGG8tDHGL48w/kzLCHLiIiIiL41hkdEJsgQHqmWR15eyMaWR1HC8IhMiT48AhbMngJ/f3/dEqDW0tomMFC3aOMd6UML2dBv6/9JUchwQ1+nJ+X6tfq/th1Upv8vRJle2HAkvH15Twsi9TH0l8vzFy/RtVd/dR5mTZ2IrFkyazUxJTDU1yvbYfeJiIiIjAGvhohMWKBcYYW86KJI4eUbmRrJJKRrlIyrY2mpW6ws9YM1W1vD2ka3WNuobRvdto2U6RaplxnBZBawkIulpe62attSt61fh9yWevUYahwf/XbIcX3CLoZuW4bnZ1jrxwPSLeZmunV4i1Yf4RLebWTR11+9dg2duvVGAltbrFuxGDmyZw1VH7yEf/v/Xxd2O7g+5NerD4v0ARKDIyIiIjImDI+ITJY+NAr1iT1FCs8hmSIJJwzBjJUEQCrkkeBHP9tXqGAoVL0WBqlFX2YIfvThSHjbwWUhwxJ9YBLxoo9uDWFK+McEL8GhS/hLeLeRxQx79x/C4BHjkCljBmxYvQT29naq3FAfevn09p+vC7sd3jGGRX17iIiIiIwKwyMik8bQg4jCZwgrDAGSLPowSL82lIWsN4Q/IevCLvr71QcjhvAn5BIckhgWXelnlpi0fNU6zJq3CMWLFsGS+TPV105EREREoTE8IjJB0lJGv8h2gFZKRBRSiADH/NNWQuYhwiH9cYaWMl8SCulKIliMybhJ0/H3lm2oVaM6xo8eqpUSERERUVgMj4hMmRYgERGFpQ9ztLBHKwtJyr40EJIlLpFwvUffQTh+8jTatm6B7n920GqIiIiIKDwMj4hMkKHlkW6LHdeiRRy7MiaiCHl6eqFl2864c/c+hgzojUYN6mk1RERERBQRTtVPZIJk2m0/Pz81Vb+buzty27bXaigyPiTepsaBiYrXb95i2cq1ePT4iVZC9G28evVardOmTaPWcVm2rFnQtk0LpEmdSivR27JtJxr88rO2F+zV6zfo2LWX7r3RFzOnjkeeXDm1GiIiIiL6fxgeEZkgf/8A+Pn5wsvLGx6eHgyPoiiq4dHFyw4YMmKsGjsmU8b0WikRRdWz5y8REBCAcaOGokSxIlop8FO9xhg2qC/KlS2tlQA3bt5Gn4HDkCBBAjUwdsoUybUaIiIiIvochkdEJkhaHvn6+sHb2wvuHp7Ik4DhUVRENTyq26AZ0qVLg7XLF8LcnF3giKJLQEAgWvzRCY6Or7Fjy3pVduPWbfQZMExtz50xCTlzZMfho8cxefpspE2TGovmzYCNtbWqJyIiIqIvwzGPiEyMDHVkGCRbrQw79E1IdzUfX18M6tuDwRFRNJPXlLy25DUmrzWxddsutRbd+wzC0hVrVHBUMH8+rFwyj8ERERERUSQwPCIyOYEhxnc2DJxNURP5cyjjTomkSZOqNRFFL8Nry/BaO332vFoL6dK2+Z8d+OH7Cpg6cbRWSkRERERfi+ERkSkK1IdGkhsxPCKi+OLuvQcqMArrzr372hYRERERRQbDIyITJZP0qwBJ2yciMnVbt+/UtkJ76fgK/QaN0PaIiIiI6GsxPCIyYdJ7jS2PiCi+OHHqrLb1qWs3bmLarHnaHhERERF9DYZHRKZK67ZGUcfzSGT8nr94CT8/P20vWLJk9ij3XWl069IejRv8Em63NiIiIiL6/zhVP5GJkZZGcgHl6+sLT08vuLm5oaDdn1otRYZT4n9gZWmp7X2dZ89foH2Xnli/chGyZM6olRJRdHny9DmatemoAqInT56hUMH8KFGsCPLnzYMUKZJrRxERERFRVLDlEZGJktYyhnGPiIhM3e8tm2HZwtno2bUTKpb/jsERERERUTT64pZHu/7dh70HDsPb21srIaKosLGxQc3qVVCnVg2tJHpIlwxpeeTj4wtPL0+4u7qjULKuWi1FxofE/8CSLY+IjJKh5dGS+TORKWMGrZSIiIiIotMXhUddew3A/QcPkSplCiRMmEArJaKo8PDwxNt375EzR3bMnTFJK426T8IjN3e8f++EDx8+6Mp8gmZfU4Npy1q3EbQtW7oC2dfTb8kx+rXUy39mIY7Xr0PWyb2pfRFU9inDIYG6DTPVQkodrH8yGv396AvUEYYb6YTdF/q90HcS+rmpkqDHDtrWHW5mbg4LSwvY2tjA3s4OSZIkga2tDaysrGBhYaE//CsxPCKKWQyPiIiIiGLeZ8MjaXE0d+FSTBwzDBXLl9VKiSg6HD95BgOHjUHXTu2irQVSyPDIS8Ijd098dP4IZ2dn+Pn6SVaiMYO5ClW05ETH3Mxc1ZvJWu3rDw4KX3Rrtcg/8+C6oDIp0t1Wbif3qL9//TFCf3/6Y+W/oEXHPFBfJrcLqlfbhv/pVtr9qAeSsMewrw6QwEq/ra2Ct+X/8p/sqAcIKtX+JyvdP125hESWVpawtbGFjY21Co7MzXVfk26JDIZHRDGL4RERERFRzPtseCStjuSic9vfq7USIopOvzRuBTs7u2hrfSThkb+/vwqPpJuph6e0PnJTLZ0CAvWzDBnCGQlzpLWNPvzRFWnb+tBHH6YYFkOZubkcq/unhSn6Yu0+grZVjbpP2VHl8k9fIYXaMWGEKDNT70xSoFIi2VGC7+PrfOntLCwkKLKApaUslkHBUWQfl+ERUcxieEQUd7x+8xbLVq7Fo8dPtBIiiqpsWbOgbZsWSJM6lVZCFDM+Gx7JRY9cLMqFDxFFP7noCQgIVBc+0UEGyJbwSGZb8/bxUV3VJEiS1khqFG0zCVIk+AmEtDSSFkShwh/dPxUQyTEhyvT1+gBFrULuq3ptS47X/S+4F5p2jDpAK1RCvvUY6kTYbRF2X4S8LxHefkjh1YUs0+3pnqPh+YcMjQxLZDA8IopZDI+I4oaLlx0wZMRY9bs1U8b0WikRRdWz5y/Vh8fjRg1Vs40SxRSGR0TfWEyER4aua37+/qqrmoRJAQH++uxIBSG6A7VAxBy6te41ritQ5fqQRNuWcEV2pUQ7XlWEvB+tTn9giLGOdAzb8iYTXBoe/W31Qm5/KcO9h71dROUGnz6W4TkbviZZhfyavhbDI6KYxfCIKG6o26AZ0qVLg7XLF6prCyKKHnId0eKPTnB0fI0dW9ZrpUTRL3KDeBCRUZOwQ8busbK0hJW1lRq7x9bWFgkS6Be1rVtkbaNbrK1t1DEyA5y1tayt1dpKFivZlkGj9eP/qPuUtZWl6tYVvOi7ecnjqnGDtG35hNFCa8UTdgmqt9Bv65f/f2x4+/rbB9d9fgl+3E/r9IucQ30LLP6BS0REFBXSXc3H1xeD+vZQv1uJKPrIa0peW/Iak9caUUxheERkYiTs0Acf+jDG2spKv1jrgyEJfmStFi0EsraWtZUKfGRtERQGhV7CC3jChjqGJfh5fFpnWAz1hmP/323Clofcj/h2UhZR+af3aSgzLERERBR10oVeJE2aVK2JKHoZXluG1xpRTGB4RGSiJPtQ4YiFBSy1kEjfYkg/7bwEJYYwKGx4IoNjG1rnGMoiWoiIiIiIiMi0MTwiMkGGYEeFPyGCnlDlDIWIiIiIiIjoCzA8IiIiIiIiIiKiCDE8IiIiIiIiIiKiCDE8IiIiIiIiIiKiCDE8IiIiIiIiIiKiCDE8IiIiIiIiIiKiCDE8IiIiojjv0JFjePzkKfz8/bUSIiIiIoouDI+IiIgozrO2tkanbn1Qp35T1GvUAr36D8HqdRtx7fpNeHh6akcRERERUWQwPCIiIqI4r0ypEtoW4O3tjVu372L9X1vQb/AI/NqkFWr90gTtu/SEm5u7dhQRERERfSmGR0QmzsnJCefOnlVr+no8f0Rxg7W1FTJmSK/tfSogIADDB/dH4sSJtBL6HL7/RQ3PHxHFV3z/ixpjPX8Mj4hM3P179/Be98Yja/p6PH9EcccvP9fStj41YfQwZMoYcbhEn+L7X9Tw/BFRfMX3v6gx1vPH8IjIxOXMlQspkidXa/p6PH9EcUfVHyppW6E1afgLihUtrO3Rl+L7X9Tw/BFRfMX3v6gx1vPH8IjIxCXXvfGULlNGrenr8fwRxR0JEtgibdo02p6epaUl/tq8Dddv3tJK6Evx/S9qeP6IKL7i+1/UGOv5Y3hEREREJqNe7ZraFlCxfFls3bhKBUp9Bw7HoSP/aTVERERE9DXMXFzdA7XtcMnMJObmZli/cpFWQpExdeZ8tW7coC4yZ8qotg0WLFkJd3cPNGlYD5kyZtBKgSP/ncDFy1dRoVwZlC2tn0XGcD/hSZc2NXLmyI7jJ89oJaElTpQQndq3wbxFy+Hl7Q1/f38E+AfA0tIC9vZ2yJ83N8qVLa2OPXrsJK7fvI28eXKh2g/fqzLx+MkzbP5nJzJkSIffGtXXSikqmrXpiICAQCyZP1MrIVPy7PkL9T4q76FZMod+7RNR1D15+ly9j8p7qPwOld+nDX5rjdy5cmD2tInaUUC/QcNx7cYttPitkW5prJUSUWzg70KimBX2dyFRTGDLo1gTCAsLC1y45KDt6713+oDLV67i3IVLWkmwU2fOI5m9HU6fPa+VANmyZgpa7t1/EGrf1tZGHeNw7XqocsOSKlUKVS98vH2QO2cOFCyQF3ly51ThxeTpc/H3lu3aEcDHj87aVrBTZ87p/h+I07rn5u7hoS+kWPH6zVtti4i+hKurG/47fgqbtu7Ajt37cP3GLfj6+mq1ZKoSJUqIVClTYtbUCVqJ3pQJo1GtSiWs3bAJU6bP0UqJiIiI6EswPIpFMsvLhUtXEBgY3NhLgqO0aVKHKhN37t3HuYuXUaZ0CXWbFy8cVXmDX35Wi2FGGQmkDGWyCB8fX/xQqWKo8pD1BvXq1ESdn37Ez7VqoMMfLVG/bm31WAaOr15rW3qeXl44ffYCihQqAE9PT1x2uKbVUEyS6aVnzV2ES1dCB49EFDEJ3wePHIe9+w/j1es3uHX7LsZMnIY5C5bCzc1dO4pM1aK502FmZqbtBevbsytaNmuCQ0ePoc/AYVopEREREX0Ow6NY9tHZWV3ECAkFzpy7iBLFiiBQ9y8kadkj5Xlz50TWLJlx+twFrebzrK2t1NrXz++TJSISXsliZaW/bXjOnr8EN3d3NWONhFqnz1xQXwPFnAOHj+LnBs2wZ/9BrYSIPufho8dYvGw1yn9XBiOH9kO3zu0woE83DO7fC9eu38K+g0e0IyN28/Yd3L5zDydPn8WFi/pQXZqEHztxGud074Wubm6qzODmrTvYr7vfE6fOwMfHRyulbyVhwgTa1qeaN22I/r2748bN22jd/k94e/P7RURERPQ5DI9ikYQzpUsWx/mLl9X+w8dP1PgLpUoUU2MPGXz48BEnz5zXXfiUVrPElClVXHVd8/jCbmIS6EyaNhtDR44PtUiXjZAOHDqKg4ePYe/+Q1i2ch22794bNLZSWPLcpcuaPKeUKZLrnlMJdXH17PlL7QiKTk+fPccfHbth2sx5amwqIvpyJ0+fQ9KkSdTAyTY2+u68onDB/OjRtQN+qlFV7Vf6sV6oVkiduvfD7r0H1PaocVNx6cpVbNy8DS9fvcK6jZsxcNho3Lh1B4ePnUDz3zvjzt376thZ8xZjiu61+ujJUxw5dhJtOnRnN1MjV6VyRUybNAavX79B05Zt8fbde62GiIiIiMLD8CgWBYdHV9QFy/kLl1GqRFGYmZshQFdncP7SFRUaJUyQQHUTk7EbPnx0xrUbt7Uj/j9zc3PVrS3sEtblq9dx8YoDrly7AWcXF/Tr+Sdq1ayu1YZ2/8EjXNUdVyBfXvWc5PmnS5Mm1HhMFHUyHsuEKTPQ4c9eeOn4SiuluMrFxZVdpL6BFy8dkTlTBjVte0jSjalo4YLqvTU8lhYW6n1ayLFPn73AnGkTULd2TTURQYc/WqFz+zYY2Kc7GtSrg6fPX6gPAWRMpfGjhqBj29YYNrAPcmbPin+271b3Q8ZLfp+tWjpf/f5t1bazamlGREREROHjbGuxZOrMeciku5hp+MvPGD5mkhpnaPM/O1Sokz1bFnTu3g9zZ0xEunRpMXbCNDW+UFjp0qZBjz87qIsaaY3SpUd/9Ql6yGBIupZNn70AC2ZPQfJk9lppaDLbmlzUDuzbXd3X3fsPMHLsFLRp0QQ/VvtBHSOzrckFUf16tdVsa6vW/oUbt25/MoaENPefPG44rK2ttRL6WobZ1urofiYWLlkRdPEalnw/EyVKpO1RXCCzGr59+05tc4aZ2DNlxlxYWlqhV7eOWkn4pOXR7q3rkTix/nXVe+Bw/PB9efX+LK/LVs2aoOaPVVTd0hVrsePfffi1bi0ULJAfefPkRGLd63H/oaNYve4vrF46TwX3Yu3Gzbh0+SqmTxqt9ilmRXWGGS/d79v2XXrh7bt3GNSvFypVLKfVEFF04WxrRDGLs61RbGDLo9gUqB/gunSJYqrrmpeXt/oUXMICQ2Bw5849NVB2y2aNMXbEoKBFBreWAapfOoYexDo6yKxrv/z8Ezb9sxPPtYG5Q5IZi6TLWsVyZUM9p26d26uuGdKSiojIWKRJnRpv3obfbUwmBfCLYPw36fIbHN6aqVm7DNr93gJD+/eCt48Plq1ci9btuuLq9Zvw9fVTY8WFDNatLC057lEcYmtri9XL5iNvntyq5edfm/7RaoiIiIjIgC2PYom0PMqYIT2aNqqvZjGbOHU2ShYvokKi5y9eonvfIZg1ZSz27D+sxrsZNbS/CpoMpOvL4BHj1CeiDX6p839bHs1duBSFCuTTSkLr37vbJy2PhIeHJ8ZOmq5mfuvepb1qeXTi1FmULVNS+tthxZoNmDZxtKoPacacheq59O35p1ZCX8vQ8kg+KZBua9Jq4tiJU1ptsB5dO+KnH6tpexQXyOtMulD16j+En7bGostXrmHgsDEYPriPGjTbwOnDR9UyM2P6dOjUvo1qebRj8xrYJU2qgqNmbTrht8a/qrBexjRq/0dLVNZaobx/74QkSRKrVpYSMMl7uGz/UKk8RoyZhH/+WqW6G4u5C5fpHusDhg/qq/YpZkXnp60TpszEf8dPokb1KujVrbNWSkRRxZZHRDGLLY8oNrDlUSzJlyc3kiROrLblU/Efq1ZWA2ULuRBp26qZ2s6QLi2+K10yVHAkpFtFjWo/wDbE4K8yDoeV5aezozVtWF+N5RDeIrJmzqQGjg1JZqaRUCpHtqxaCZA7Vw61lq5pzRo3+CQ4EjLAtnxtFD2kBYPMCLV43gzVTZHiNhm02dAlimJPsaKF0LD+z1iweCXW/71VTdt/6MgxzFmwRPd+5o06tX5Ux8ng/0ePnVItKGVgbHmPM7Q8kg9NfH181baQwbS379qLd++dVOAvAyynSJFMtR5NmTIFNugeR+quXL2Ow0ePo2rlitotKS4Z1K8nmjb6FfsOHMbAoaO0UiIiIiJiyyOibyxky6OwZEa8mXP1rbvY8ihu4qet34Z0Gzt45JiaMe39+w+wtbVB3ty58GO1ykHBrEy7v3HTP6oFpoz3dll3bJHCBVC/bm2MHDsZFcqXVWO+iYePnuDvLdtx5+49WNtY47vSpdC6RRN1W2ldJuMeyTH29nbqvqpXqaRuRzEvJj5t3XfwMGbMXoAM6dNh4ZxpKtgnosjj70KimMWWRxQbGB4RfWP/LzwS0p1mzvwlyJ07B8OjOIh/MBPFrJj6g9nh2nUMGDJKjX21ZP6sCCehIKLP4+9CopjF8IhiA7utERk5mcFJWh0VL1pEKyEiophWpFBBLF84Gz4+vmjxe0fcf/BIqyEiIiKKfxgeEcURaVKn0raIiCg2pE+fDhvXLIW9nR269uqvZh4lIiIiio8YHhERERFFIFHChFi7YhFy5siO0eOnYMu2nVoNEVHcce/+Q7VI9yYioshgeERERET0f8jYj3NnTEL578pgyfLVmLtwqVZDRGRcTpw6iwOH/8NLx1daiZ60nNx/6Ki2R0T09RgeEREREX2BYYP6okH9utj17z4MHTlOKyUiMg4yyYqERCdOnsGZsxe00mCenl7aFhHR12N4RERERPSF2v/eEt06t8eFS1fQsWsv+Pv7azVERN+WdEm7dfseypQugVNnL8DT6+vDojPnLqrl6bPn2H/wqGrJ5OvrqyYN+HfvQfx3/JRu308de/PWHbW8ffceh44cx4nTZxEYGDyRt4RZcl/7DhzGZYdrWikRxVUMj4iIiIi+Qu2ffsS4kUPUhdpvrdrD2cVFX0FE9A2dPHMOmTJlQKkSxfDxozOuX7+l1YQ2cepsLF6+RtvTd2lrqnsvE46vXmP33gOYOXcx7j98iGWr1mHtxs1Yvno9Hj15iqUr12Lbzn/VsXv2H1KPOX7yTNy6fQfzF63ArHmLVZ20curcoz927t6Lp89eqNuNnjAtVLhERHELwyMiIiKir1SieFEsnjcDHp4eaNa6Ax7rLqqIiL4VaWV09txFlCtbCqlSpkDRIgVx6uz5cMMaaREUkoWFpe44/baZmZlqZdStczt06fAHfqxaGQ90+7L9Z0fdfrUfcO2GPpSSYy9fuYYp40egq+74rp3a4tiJ06runx3/wtrKCmNHDkb7P1pi8tgROHX6HK5eu6HqiSjuYXhEREREFAmZM2XEhlVLkThxInTq1gfnLlzSaoiIYpeMceTh6alaHTl9+IgypUqooObV6zfaEcG8wnRns7GxDgqZzMyA9OnSIkvmjGo/QYIE8A8IQNo0qfT7trZwc3NX2xIeZdYdZ2lpqfbt7JLCxdVVbd+9dx/58uZWx4hEiRIiW9bMePDosdonoriH4RERERFRJCVJkhjrVy5WF0XDR0/Ajt17tRoiothz6sx52NraYuCwMejeexAWL18NcwsLnA5n4GxfP/2YRQbSEik4PDKDtbUVzM2DLxOlBZGF7r4MDNtybMIECdS2gSEsknGS5HYhScjk4+Or7RFRXMPwiIiIiCgK5EJqwexpKF2qOOYvWoZFS1dqNUREMe/O3fs4e/4i2v/eAsMH9cGEMUPVumrlijh99vwn3dSk9VBAiMH+nz1/GRwe6f75+fmF6u4mA2T7+wffh62tjVpLUOTj46O2DWys9XXSeun127dq2+C9kxNSpkyh7RFRXMPwiIiIiCgajB42CPXq/IR/duzGyHGTtFIiopglAVH+fHlQpFABZMqYIWgpW7oEHjx8jIuXHdRxWqMg5M6VA5ccruHZ8xe4cfM2Lly8HBwW6Q7Sh0XB4ZKPry/8A4L3raz03dQkPPL2Dh0eGeoqV6qA4yfPqBZR750+qEG2/fz81XMioriJ4RERERFRNOnc4Q90av+7Gn+kS49+n3ziT0QU3V46vkbZ0iWDuowZZM2SWbWINHRdk25t4tdf6iCbrm7kuCnYvnsvfmvSAIUK5FN1chdpUqcM1W0tRXJ7mIe4byttjCN5PDPz0I8pAZYokC8PBvfvqUKjgUNH4/qN2xg/eggSJ0qk6oko7jFzcXUPbpMYjvZdeurePMywfuUirYSIolOzNh11FxeBWDJ/plZCpkQ+1ZP3UXkPNQw+SUTRR6bLl/dReQ+VT9qNxZlzFzBy7CTY29th6fxZalBtoviKvwuJYpax/i4k08KWR0RERETRTFoBzJ81FS4urmjaqh2ev3ip1RARERHFPQyPiIiIiGJA9mxZsH7VYtVVpF3nHrh85apWQ0RERBS3MDwiIiIiiiH2dnbYuHqJ6kYwaPgY7Nl3UKshIiIiijsYHhERERHFIEtLSzUORfGihTFr3iIsX7VOqyEiIiKKGxgeEREREcWC8aOHoVaN6vh7yzaMmzRdKyUiIiIyfgyPiIiIiGJJ9z87oG2bFjh+8jS69xmEwMD/O+ktERERkVFgeEREREQUixr9Wg9DB/bB3Xv30eKPTvDw9NRqiIiIiIzTZ8MjGxsbeHjwjxqimCKvL3mdERFR/FGhXFnMnj4RTk4f0LRlOzi+eq3VEBERERmfz4ZHNatXwdt373H85BmthIiii7yu5PUlrzMiIopfcufMgbUrFsLS0gK/d+iKa9dvajVERERExsXMxdX9s53tu/YagPsPHiJVyhRImDCBVkpEUSEtjiQ4ypkjO+bOmKSVkql59vwF2nfpifUrFyFL5oxaKRFFlydPn6NZm45qNjOZDj8u8vHxRcduveHo+Ap9e/6JalUqazVEpoG/C4lilin8LiTj90VjHsmFbddO7WBnZ4eAgEAuXLhEwyKvJ3ldMTgiIorfrK2tsGLRHBQumB9TZ87D6nV/aTVERERExuGLWh4REVHk8NNWophlap+2Tps1DwcOHcUPlSpiQJ/uWilR3MbfhUQxiy2PKDZwtjUiIiIiI9Gnx59o1bwpjvx3HL0HDNVKiYiIiL4thkdERERERqRZkwYY0KcHbt66g9btusDb21urISIiIvo2GB4RERERGZkfKlXA9Mlj8ebtOzRp2Q5vdWsiIiKib4XhEREREZERyp83D1YtnafbCkSrdl1w6/ZdfQURERFRLGN4RERERGSkUqdKhY2rlyFVyhTo1X8Ijh47qdUQERERxR6GR0RERERGzNbWBquWzke+vHkwcepMbPh7q1ZDREREFDsYHhERxSBra2u1dnFxUWsiil6G15bhtWaqzMzMMGPyWPzwfQWsWrsB02fP12qIiIiIYh7DIyKiGJQmdSpYW1lhwtRZCAgI1ErJ2DVr01EtZNzkNSWvLXmNyWstPhjQtwd+a9IA+w8eQf8hI7VSIiIiophl5uLqzqsZIqIYdPGyA4aMGAtzc3NkypheKyVj9tLxlVqnT5dWrck4PXv+EgEBARg3aihKFCuilcYPBw4dxbRZ89TP6MK501WARmSsnj1/gfZdemL9ykXIkjmjVkpE0eXJ0+fqQ68l82fq/tbMoJUSRS+2PCIiimFyUSvjlVQoV1a1lOBi/AvkYxXdEl4dF+NZ5DUlr634FhyJ6lUrY/L4kSrobNqyHZycPmg1RERERNGPLY+IiIjCkE/IhXyCR2TMHB1foWO33vDz9cOsaRORK2d2rYbIeLDlEVHMYssjig1seUREREQUR6VLl1ZN5Z8smT269R6Ak6fPajVERERE0YfhEREREVEcljBhAqxdsQi5cubAmAlTsfmfHVoNERERUfRgtzUiIqIwvrbbms2b2toWRYZXql1qKnqKurETp+HEqTOoXfNHdOvSXisl+rbYbY0oZrHbGsUGtjwiIiKKgsBAfgZDxmPowD5o9Gs97N67X83ySERERBQdGB4RERFFkTSa4RL5haJX2zYt0L1LB1y87IAOf/aCn5+fVkNEREQUOQyPiIiIiExMrZrVMX70UDx99hy/tW4PZ2cXrYaIiIjo6zE8IiIiIjJBxYsWUeNfeHp6oVmb9nj0+IlWQ0RERPR1GB4RERERmSgZOHXD6iVIkjgJOnfvi7PnL2o1RERERF+O4REREVEUyUxhXCK/UMxKkjgx1q9ajOxZs2DEmInYvvNfrYaIiIjoyzA8IiIiIjJx5ubmmD97KsqULokFS1ZgoW4hii3W1tZq7eISd8fekpk1L1y6ou0RGRfDa8vwWiOKCQyPiIiIiOKJUUMH4Jefa2Hbzn9VKySi2JAmdSpYW1lhwtRZCAgI1ErjFmklOWLsZFSoWgcDhozGtes3tRqib0teU/LakteYvNaIYoqZi6t73HwHJyIiiiHtu/RUaxls+HPk0+iE73/W9igyPFLsZPe1WLZ91x4sWLwc2bJmwbyZk1XLJKKYdPGyA4aMGKt+1jJlTK+Vxi1v372Hh4entqeXMGEC2CVNwhYf9M08e/4SAQEBGDdqKEoUK6KVEkU/hkdERERhfG14lMiJ4VFUuCdnePQtyODZ0vrI3s4OSxbMVGMjEcWk12/eYtnKtXF25j93dw84ffig7YUm72EJEyRAkiSJYWVlpZUSxTz5EKBtmxZsdUQxjuERERFRGAyPYhfDo2/n0eOn6Nqrvzr/C2ZPVbOzEVH4HuteL52699H2PlW+XBkMG9hX2yMiMi1so0xEREQUT2XLmhnrVy5GggS2KjS9dNlBqyGK37y9vXHtxk3VUqpL976o/UuT/xsc1a1dk8EREZk0tjwiIiIKgy2PYhdbHn17fn5+6NKjH54+e47uXTqgVs3qWg2R6fP391dd6c5fvKJbLuH+g4fw8fHVaoGUKVOgSKGCKFu6BBYtXYl37520Gr02LX9D00a/antERKaJ4REREVEYXxseJf7A8Cgq3JIxPDIWMqCxDGzc8Ne6aNempVZKZDrkPfvFS0fVyk7G/bp15x48PDy0WiBp0iQomD8fypQqgaJFCn0yjsy0WfNw4NBRbQ/o3b0Lfqz2g7ZHRGS6GB4RERGFwfAodjE8Mi5zFizB7j37UaFcGQxlNxyK496+eweHq9dx5txFXL9xCx+dnbUaqO6aeXLnQpmSJVCieBFkzJAB5ub//73oxKkzGDtxmtoeM2IwSpUopraJiEwdwyMiIqIwGB7FLoZHxmfzPzuwdMUa5MqZA7OnTeD3h+IEZxcXXL9xG2fPX8CVq9fx5s1brQawsrJEjmzZUKpkMRX4ZM+WFZaWllrtl3N2dkHTVu3U60JeH0RE8QXDIyIiojAYHsUuhkfG6eTpsxgzYSpSJE+mXgsJEybUaoi+PU9PT9y+cw9nL1xSXdCePX+h3o+Fubm5mjmwRPGiKFOyOPLkzglbW1tVFx1ev3mDNKlTa3tERPEDwyMiIqIwvjY8SvKxrrZHkeFqv4PhkZG69+AhevQZqFpoLJwzHenTpdVqiGKPr68vHjx8jHMXLuHCxct4+PiJGuTdIG2a1Gp8IhmnSMYrSpIksVZDRETRheERERFRGAyPYhfDI+Pm5PRBvSbcPTwwedxIFC5UQKshin4BAQFq1r+Llxxw9sJF3L13H15e3lotkCyZPQoVyK9mPitcqCBSpkiu1RARUUxieERERBQGw6PYxfDI+EnLj45de+Ol4yv07tEFP1bl7FIUPV69eo3LDtfUzGc3bt6Gq5ubVgMkSpQI+fPmVi2KihUtrFq+8b2CiOjbYHhEREQUBsOj2MXwKO4YMGQkHK7dwG+NG6B1i6ZaKdGXcfrwEdeu31Azn13V/Ry9d3LSagAba2s1AHXpksVRskRRZMmcCRYWFlotERF9awyPiIiIwvja8CipM8OjqHCxY3gUl0yfPR/7Dx5B5e8rYGDfHlopUWhu7u64eeuOalF0+cpVOL56rd4vhYRCWbNkViGRhEW5cmSHtbW1qiMiIuPE8IiIiCgMhkexi+FR3LPx761YuXYD8uXNjemTxvL7F895e3vj7v2HOHfhIi5euoInT57BPyBA1cnPhnQ3K16siOp+Jj8ziThzHxFRnPNF4ZGTkxPu37uHnLlyIXlyDkr3tXj+oobnL2p4/qKG5y9q4ur5+5rwSAZ3tXOpp+1RZMRUeMTXb9R87vwdPX4SE6fMROpUKbF43kzY2tpoNSRM9efP398fjx4/VbOenbt4CfcfPISPj69WC6RMmQJFChVUA1rLwNb29nZazdfh6zdqeP6ihucvanj+osZYz5+5tv6/5IlLn2RZ09fj+Ysanr+o4fmLGp6/qIkP50/rhUFGiK/fqPnc+atcsTxmTBmHt+/eo2nLtnjz5q1WQ8IUfv6kZeXzFy+xY9ceDBkxFr82bY3a9Zuia6/+quWZ1JUsXgy9unXGqqXzsXfHJqxdvhD9enVFxfLfRTo4EqZw/r4lnr+o4fmLGp6/qDHW88eWR7GA5y9qeP6ihucvanj+oiaunr8vbXkkF1bSNSOZ6y9aCUUGWx4Zpy89f2/fvkP7P3vB29sL0yaORf58ebSa+C0u/vxJEOhw9TrOnr+Aa9dv4aOzs1YDJEhgizy5c6FMyeIoUbwoMmbIAHPzmOuuyNdv1PD8RQ3PX9Tw/EWNsZ4/jnlEREQUxpeERxIcyeLn748U7r9qpRQZHPMo7pMxbzr82Quv37zFgD498EOlCloNGStnFxfcuHEbZ85fwJWr10O1HLOyskT2bNlQqkQxlCpZDDmyZYWlpaVWS0RE8RHDIyIiojC+NDyS8Y78/PyQ0rOhVkqRwfDIdPQZMAw3bt1G7ZrV0ajBL0ibJrVWQ9+Cm5sbHF+9QcYM6XD7zj2cvXAJly474NnzF+o9TJibmyNTxgwoUbwIypQsgTy5c8LW1lbVERERGTA8IiIiCuNrwiNfX1+k8mqklVJkxMXwyHDhTZ8aNW4yzpy7oLbnzpiEHNmzqW2KPfK+VLdhc20vNAn0ihYupGY+K5A/L5IkSazVfDsMj4mIjB/DIyIiojC+Jjzy9vFBGu/GWilFRlwKj/7esg1r1v+tLs6JKHpYWVmhZbPGaNyA48cRERkrhkdERERhfGl4JFNWyxTVaXwYHkVFXAmPlq5Yg83/7ECJYkXwfYXvtFIiiqpjJ07j4mUHNKxfF+1+b6mVEhGRMWF4REREFMZXhUe+vt+k5VH34XfVevbo3Godl8WF8Ei+1zJFea2a1TCkfy+tlIiiy7jJM/Dv3oPY/c9GWFhYaKVERGQszLU1ERERGbHTF50xdvZjbe/b8/ENwIq/HFGp0SXUaeMAdw9/rcY0Ob56rdbNGjdQayKKXobXluG1RkRExoXhERERUVTEQvtdT68A3H3oAYebbmpblqnDcqnlWxk88SE27HiNGpVSaCWmzTBAtsxMRUTRz/Da4mD0RETGiX8BERERRUFkL3RqtXLA7OXPMWD8AxSufg75fziL0TMeabWhzV7+DLsOvYebuz9a9byJ8w4u6D7sLroNvaMdAaz95xV+bH4Fub8/g3L1LmLivCfw9dU/t2UbX6rH27rnLao1vYxcFU/j59+vqkDKYP9/Tqjf7hryVj6D4j+dV89LHi8ics9zTKDLHBERERF9HsMjIiKiqIjkUD0urn5qyZbZFn8vKIjeHTJh8oKnOHPJRTsiWLGCSZAloy0SJ7JA+2bptdJge4++R4f+t1G7SgrsXlUY/TpnxpotrzBj6VNVb25mhvuPPbF59xtMGJQD6+YUwHsnX8xa9kzV37rvjna62xfMkwj/LCmEqUNz4oKDCwaMv6/qwzOmbzbkyZFQ2yMiIiIiU8bwiIiIKBKi2rPCzNwM1++4o1OLDMibMyFa/JoWKZNb4dptN+2IYD9+n1zb0m9/X8Ze29Pb8u9b1KqSEt3/yIRc2RKifs1U6NsxMzbteqPqzXS/7Z87emHgn1lQqkhSlC6aFNW+T4ZL11xV/fZ979Rjj+qTDflyJUKV8skwrGdWbNihv314EibggLZERERE8QXDIyIiokgImhwskimS3D539gTaHmBlZQYLC7P/21UsIvceecAuiQXa9buFtn31y4nzH/Hilbeql8dKndIaObMGP561lTlctceSVkmZ0tmgff/bQbeXlkvOLr6qnoiIiIjiN4ZHREREkRDllke6xdbm01/DEiB9LV+/QNgntUTZ4nahllF9sqt6mQbfytIMNtahH8/wWL5+AWod9vYLJ+RV5UREREQUvzE8IiIiigRpzROVWYHk9t4+n94+YYKv/9WcOYMtXr7xUeMhGZYKpezQumFaVS8RkZ9fIHy0AbQNDI+VKb0tHMPcvlaVFGheP42qJyIiIqL4jeERERFRFEQ2QDI3N4OX96dd1MJrjSQkAPL2DsCjZ144dOKDvlBTp2oKbNv7FrsOvlP77z/4Ytby52je/abalxmwpXWSt4++hZGBrY1+3KKffkihur7JrGx+/vrjlv/liMqNLqv68Bw++UEtBmcvu3xSRkRERESmgeERERFRJESl1ZGQlkcBobMcJaK7LVMsKR4/90K9P67ig3PosYia/ZIWI3tnQ//xD1C6zgVUb3ZFBUjj+gd3W5MAKSAg9J0bvobyJe0wfXguzFr2HGXrXkCF+hdx7MxHTBueU9WHp++Y+2rZvOsNXr7yCdp3+shxkoiIiIhMjZmLq3vU/volIiIyMe279FTrJfNnqnV4AgIC4O/vD29vb6Tz+00rpchwsduhAi5j9uz5C/VzsX7lImTJnFErJaLo8uTpczRr01G972bKmEErJSIiY8GWR0RERFEQ1RZIRERERETGjuERERFRJDE4IiIiIqL4gOERERFRlBh3dysiIiIioqhieERERBQFbH1ERERERKaO4REREVEk6XMjhkdEREREZNoYHhEREUUBGx4RERERkanjVP1ERERhfOlU/b6+fvDy9kLGgOZaKUWGc9IdMDfnVP1E8Rmn6o86x1ev8fzFS22PiKIqY4b0SJc2jbZHDI+IiIjC+NLwyMfHV4VHmQJbaKUUGc52O2BuxvCIKD5jeBR5/v7+6NqrPx49fqqVEFF0yZY1M+bOmAwLCwutJP5ieERERBTG58Ij6aoWGCgtj3zh6cXwKKoYHhERw6PI69F3MO7cvYfRwwagbOmSWikRRdWZcxcwfMwk5MmdC7OmjtdK4y+GR0RERGF8aXjk4+sDT08vZEZLrYYiw8VuB8wYHhHFawyPIsfd3R0NfmuDvj27oH7d2lopEUWXf3bsxtSZ87Flw0okSpRIK42fOGA2ERHRV5KcQ03Rz49fogVPIxFR5Dh9+KjWxYsWUWsiil6G15bhtRafMTwiIiL6SpxhjYiIiIjiE4ZHREREUcEgKeqYxhEREREZNYZHREREX8nQbc2wEBERERGZMoZHREREREREREQUIYZHREREkSSNjtjyiIiIiIhMHcMjIiKirxQcGAWqfxQ1PINERERExo3hERERUSToWx3JlpnaJyIiIiIyVQyPiIiIIkm1OmK3tShj/EZERERk3BgeERERRYo+NOKYR1HHc0hERERk3BgeERERERHFov+On1KL04cPWgkREZFxY3hERET0laSljGotY1gTfWNnzl3E1JnzceS/E1rJ5/XqPxQ7d+/T9mJXn4EjsG3nv9pe9HF2dsHW7bsxYcosDBs9EbPnL8HRYyfh6+enHRG7lq5Yq74vb9+910r0rl6/iXv3H2p7RERExo/hERERUSSpEIlzhZEROHXmHNKlTY3TZy9oJZ/Xu3tnFC1SUNuLXT27dkCJYkW0vejx9NkLTJg6SwUzhQvlR9XKFWFvb4cFS1Zi1dqNCAgI0I6MHe/eO+m+L+fx3skp3O9LbD8fIiKiqLAYNHjISG2biIiIdHbu3qvWdWvXVOuw5KJPFn9/P/j6+iG55Q6thiLDy+Y3mJsb97DZLi6u6ueiwS8/w94uqVZqHJ4+e47lqzegcYN62PD3VpQoVhjJkyfTaoGDR45hy7ZdOHH6LN6/d0Le3LlU+d+bt8PNzR15cudUrWD+2b4bR46dUF2pjp04jYtXHFTAs2T5GhWEXL5yDZu2bFfhTIH8eWFtba3uR1o7/bVlm+5x/sPzFy+RL18eWJjrP590cXXDxs3/YM++Q3jv9EE9lpmZmXpsZxcX5M2TCz4+vvhbd79bdc/x1Nnz8PPzQ7asmdXt5bFfv36rHvPvzdvgcO0GCuju38ZG/9ghLV25Vve6DFShWKEC+ZA1S2YUKVQAyeztcOvOPaRNk1q1Srp4Wf91ibv3HmDL9l1q/6Tu/Ow7cET39X/E2g2bUbliOdy8dUc9twOH/8OjR0+QPl1aJEqUUN327PmL6nzvP3QUj5/8r707AbCp/P84/p3VMAzGztgjspOlXWXJrrQqqfDPFhUpKSn8Cj9C+KVSKqEo2bIUJbJl3/dtmDFkmX1hZv7n+9xzZ+PWmGsYeb84zjnPOffcc58797r3M8/znGNS6ZYKKXWiflv5hwQfD5G772wka9dvMGGWPna1fsMm8fbyktusx/L1jFmmfm+pUN5sm/XDPHMupu6/+Fo2bdlmgrEFPy2xnqeDUr58Wflx/iKZt2Cx7LPWtU59fXxMXZ07Hy4bNm0xx9i+c7dUr2Y9T9Y2pQGW83yPHgt2nK+9LSfQVmP6c6rvu/kDctZrLCfLye9NwL8B702paHkEAECWeUhSMq0H3EfrLXdoKFCxQjkTqtSpXSNdK5e5CxbL9G+/l3vuaiRN7r9XNmzaKuMmfmK27dqz18wjo6Lki69nSHRMjDRqeLucOv2XxMbFmSBG7dqzT0JCToq3t7e0adVcDh85aoIKpSHT2AmT5Y4Gt8vDbVuZwGLsRx+bbfqltmff1yRP7tzS9MHGJjAZ9eFEs23PvgNmroaPGCN79u6Xdm1ayD13NpIJH08xYZPad+CQCVY0c9H7Dj5+Qj6e8qXZltGfGzfLXY3qS0C+vHaJQ726tWXQ66+a0CzZekznz0fYW0QuJl40deTgIWvWb5Dlv66UmtVvk5DQMHn9rfekXLky0q51C1Mfr73p+J2rhjvv/We01KpRXR59uI0J5d5+9wOzTV24cEHWrP1TGtavKw1ur2PCmq3bdthb09uyNX25hmcHDx0xy4mJiRITEysxsbHWserJxs3bZP7CpeJpVchddzQwQZEGXkrrXkMsDbBat2wu+w8ekilTvzHbVqxabepZfz4ebd9aTp06Le8MHWG2AQCQGYRHAABcMUfrAcdwR1xo3l0MG5V1Gvz8sXa9CRI8PT1NwLB63QbTqkdpl6kSxYvJ7XVrmZYsTzzaXp59+nGzzenAgcNyIiRUWjZvInc1aiAd2rc2607aKkzH7Hm4bUtzjCb33yfbd+w22woWLCD9+vaU++6507Ty0WNs3b7LbNNWPkWLFJHHHmlr7v/pJzpImdKlzDan0NAw6/z/lBe7dpbaNaubkEvDmCW/OAIRve/jISHySLvW5r6bPqD37Th+RpFR0VKsWFF7LZW2PNKwRWmok5aPj0/KuGV6X0eOBsuAV3ubxxoeHm621alVQ6rfVkU6Wuf/wdC3JT4+QRYtXS5tWzWXZk0am1ZOXZ9/Rnbv2ScHDh42x9LA7bhVh/q8aGul+vXqmOflchIynJOGP87gzsP6oy2vtE7uvfsOqVqlkhw8dNjUqdZ51Vsrm5ZnSs9ff0Pevk0LU99NGt+bUleLlyyX9tZj0vqrUf026frcM+Y51CAQAIDMIDwCAOCK6UDZGnokpXzxBK4HbbWiLVMKBQaaFkd5/f0lKTHRdDFTTR9oLKEnw6TTCz1lxOjxcvx4yCXN7s+Hh4tfrlxSqFCgWc+XN68EFiwoifYg09rVqmzZILOsvH28JSY2xiyXDippWrz0evl16dSlp3zy+dcpr4ngEyFSskQxs6y0q9uTjz1srzmEhoVJbr9cUti+b1WiRHE5EeoMrzykXJnS9rLet495vJejj0Fb7fyd2Ph4e8nBxzs1PNLHGViwgOSzWy5pd7AG9etKt56vylvvvi8/zF1guppplzntnhdkPXanvFad6e1Ohp0y6zrW0W1VKpvWS/q8aAukNev+lLBTp832tOLjMpyTVb8p7yvWORUuHCi57O5wXp5e5nlydn/T7oHa7U9pWbmyaetKnydHXQWfOCGlS6UGdwEB+cQ/bx7rfC89HwAALofwCACAK+AIjexl84+9AlxjOu6WhhSFAguaK5c5Jx0kWoMK3a7hzicTRsuwIQNNGDJt5qyUrmNOGjqk/VnW4EKni4mJZl0DHG8vb3vZQbuwqTHjPzZjGQ0Z9Jp8OnGMdHuhkylXel7a7erv6HH0bpPSvI70vJ0thXTm5eVllp2c952RtvA5dPjSljSRkVGme11cfLwkW8dOKz7BKku5b+txWsfWFlxK54MH9pfPJ48z4xXt2LVH+vR/0zwm3U/P08lZZ3q+GhDpeEja3c75nGjXuPz5A0zXvYzSHkfpedrvLuZ4zvNxcgZHTho2OXi4rCsNyS49X8fxr5duvV6VIcNGmq51Og6Ts9XWPwWAAIDrg/AIAIArot+47EVL6hdPZB11mBU6vo0OxKxdmoa9MzBl0tY92hpIg5Rlv640g0JXrFBe2rdpKb27d5HNW7fZR3DQwbVjY2IlJPSkWdcuatrtzRk2aHeo+AwtdnL7+Zn5kSPHpH692lKkSGHxs8q2bHW0eFLa8ubAoSMpwdDefQekT783zbJTUMkSZtwhHcvI6dDhI+Z8lQYn2k0srdy5Hfed0R0NbzchhA5y7RQXFyc6uPS0mbPl3LnzJsCJtVvjqJ279qa8hvVxajDkPF+tWx0vqljRInL/fXfL22/0k7Nnz5tuYpVvqZASdigd8yg8IlJKB5UywZG2gho04JV0z0uDetr6aIMkJKR/PPkL5Df177Rnz36r7h3noEGRdmtL+z6Tseudn18uM3c8Txnqyn6eKlWqYMZActJxraKjoiUoTWuka03HXfpt5Wr5/Kvp8u7wUTJ4qGPMqB59+stDbR+Tto92lGde6C6vDBgkoz78yDwXOnaTDhKuzyUhEwBcW4RHAABcKeuLnPljz4HrQccKqlC+rFS/raoZu8c5VataxYQYOvizBh0jxnxkrhi24Kel8o31BfyOhvXtIzhoEFKlSiWZMWuOTJsxS6ZOm2laDTmvmGYCDLtrlJOzRUutmtVl/sIlsmDRUhkx+iMpW6a0nP7rL1m46GczRo+Ptd/osZNk9pz5MnrcJHN1tbQ0uNJQa+SYCSbk0SuP6YDQGogpzWkzhi0ZW0E5tW7RTCpXqijDRowx9zV5ylcyfORYWbHyD3m24+Nm7CcdN2nlH2tNEPHlN9+aMX9SWzl5mNZWztZJuXxzmX10cPDFPy+XiZOnmJZc+hh1cHA9jl7hbf5PS8xjb96ksZQpHSR/rFkvDRvUM13D0j4vjRrWk6NHg814SMrZgqhR/boy+8cF5mo+4yd9aga1doZFOuZR4kXrnDKER2nXna2NHM9Thrqyn6dHrPNd/ttKmfLlN+Z8tb4favagBJUqYbZfD3NnfS2/LflR/li+UH5dPEc+GuMIj17o/LQ89XgHadSgvhQsUMB0BVyxcrV89c1MeX/kh9Ln1Tfkqc7dpPUjT5mQqd1jT8uzXXpK/zcGm+f929lzZNXqtWZsKO2S+U+t3wAAmeMRERnNp14AANLo1vNlM/900lgzT0u/tCUmJllf4BJMq4bo6Bipmre7vRVZcS7vnJQvuTmVtozRn4vpUydL2TKp4/9cTxrQqFYtmpp5Wmm3bd66XbZu22lCh1tvvUXuvesOs03DJKX7aEuUTZu3SXxCgrmE+y/LV5jub52ffsJcpl7pYMsq7boec+kvv5nb65hGemUxvXS/Dl6tA0pHRUfLsl9/N5e/1yvC6WXrNaxx3nfrls3MXLvZ7d1/0FyZTa/4VibI0SIm430v+22laRHlXM9IW0ht2rLdhEL6WAoXKiR1a9eQUiVTQxINfbQVTqkSxaVmjWqmO5oeb8PGLXIuPFweuO/ulEBGxzbSMEhbuuhYTA80vtuMCaW0pdaq1eskNjbOPDYdHFsDHK37CtZ61QxBmYYYi5cuN8t6ZTvV5IF7zfhSGuho66WqVSqbutP3GT2nBfbz2Np+jv9u/e+eJ6WDoOtj0fO9pWJ5ubNR/ZQAKyc4euy4dHzuRfO+q+Hn5ejzez48Qk5bP29a/zqY+okToXIyLMx0E4yy6s5VWKQt4/RS9kWLFjFdHINKlTQ/F8WLFTVjhvnn9U8JTHMSDcIaNaxvxtu6nJz43gT8m2TmvelmQXgEAEAG/xweJZquJBoe6ZeVavl62FuRFYRH15d+CZ/82ZdSr24tadGsiek2NnHy5/J4h7Ym7AGuhav5BU3fm8+dD5dTp0+bn28NmDQ805DpzJlzJtTMONaU0jBNQya9Qp92VyxZsoTpWqlzDZm0pZx/njyXjEOVnbQl1fSZs2XU++9K5Uq32KWpCI+A7EV4lIrwCACADDIVHiVoy6N48yWE8Mg9Z/3nSOqgvznTv/0LmrZ8WbRkmQnxtAWHXga+y3NPu2ztAFxt1/oLmr6Xx2rIdO68GX/phAmZQuyQ6ZScPXfOXNnPVcikreQKFiwgxYoVNa3YStktmTR00tZkefLkviotu8aMmyRLl/1qljs+8ag8+/QTZtmJ8AjIXoRHqQiPAADI4J/CIx2oVbvraPcPDY+qB/S0tyIrzuadY8bGycn4ggZkr5z6BU3f8zVE0jBJr6QXEhJqujNq2BQWdsqETzGxsWa/jLSFkoZIGiZpyyUNl0zIVKK46T6n4ZMOav53IZOO5bRj1257Tcxg8qM/eM+0kFK8NwHZi/AoFeERAAAZZCY80gGE4+JiJSoySqoX6G1vRVYQHgG40b+gaQslHcvq7NlzpuWSCZmsSecaOmk3Ou1O5ypkyuvvL4UKachULE13ueIycsxHZjystHT/4e++JXVq1eC9CchmhEepCI8AAMjg78Ij/YKQmHhR4uMvSGxcrLncdQ3CI7cw5hGAm+ULWqKGTNb/G2fOnjUhk3aT05ZMOjaTdp/TAcE1ZMqMtq1bSJuWzXlvArIR4VEqwiMAwE1NfyO8actWe83h62++NfNOGcaWqFu7lhQpXCil5ZEzPDpz5ozpunDBKkuyL92vnRB0SXsjOJd16XLdExxlyWauf/Svua1jTXdImZtZyj+OfVxx3pV1ZJd7mS0ejrPTX4g7z89RkrqejhY5d7CYXfQwZoNyzM1udrku67G8vL0lV65c5qpHAQEBkju3n1l3Xt0qpyI8ArIXX9DS07H1IqOi5MlOXe2SS/n4+EjbVg/J9z/O570JyCa8N6UiPAIA3PTGTfhYFi1dZq9dXotmD0rf3t1Ny6OU8Cg2VmJiYuTc+fNy3pouXLhoghT9j9UZmDiSFcd/tSYc0sn6o6GKp2MPU6aLjqBG93EuW/t4eDq2pezrKZ6e1u2tP+mPl2wfz1Fm7643sEvNivnXsI9vzxysZbO3Flqn7NimxzNb0+yr++i649hmRf9Ns9256HwculEv0e7l7WW+8Ohgs7ly+Ymvr4/pgnEtr16UFYRHQPbiC9ql9P+a1o88Za+lCgjIJy926SwP3n8f701ANuO9KRXhEQDgpqeBUJsOHc1vei9HW8XM/366CTgc3db0amuOS/XrQKmRkZESFRVltilnYKLBj4enHaRoeGIHJI65I0zRjbq/lplV6x8NiFKCmZRtZs1aNjtZ21K3O/d17KPrZoPzryNoSl2x5vZtbSnLekPz11GS/gOCI6y6PPsWut0c376lWXYsKt1LH4vWp7ePtxnnSJfTPr6cii9oQPbiC9qlzp47Lx07d7PXREqWKC69e3STurVr2iW8NwHZjfemVDn713wAAFwDGl68/FJ3e+1SL/fubvZxMmGNNWnw4evjYwY6DQwMlEKFCklh51TYnnS5SBEpUqSwWde5dn0rquu6bNYd2woXsubW/oXMsRzH07leqSewYAHrPgpKwQLWcoECUkAnq6xAgfymC1h+az2/zu3uYPqb6YB8+SRfvrzWPMDM8+W1Ji3L6y95zZTXTP7Wspmsx6FTnjx5zOSfbrLKc1vll51yS26d/PxMN7TcfrrsLEszWet6haBcuXxTgqOcHhoBwPXy119nzLxqlcoyadwo+XzyR+mCIwC4lgiPAACwNH2gsfmtbkYliheXpg82ttfSBkeepvWMr6+vCVo0mNGwJiW4seb5rLkjrNHgxjnPK/7+OvlLXn87mEkzdwY3Gspo2OIIZjSU0QDGT/z8cpkAJnfK3E9yaXmuXGbsoNTJN8N6Jidf53LG219u3TmlLU+7LX25dlHTSQfH1klbWDnrFACQXmhYmEz7/GP5cORwqVC+nF0KANcH4REAALYhb71uL6V69+1LyzTs0JZI2nrGV0MSv1yOcMc5mZY2GvSkTmlDFA2A9Ha+vhqoOCYfH18zFpBO2prJR7t1mclR5gxcdNl0+9J1a67LXta5aHc2PSfH3Nk9zNFFLHXuWHbsl3Ff5zZHWdp9HcveZjntbTw9tcuZTs6ytOWO+0+7TY/j2G53y/NwtPoCAFzqvrvvNK1SASAn4BMbAAC2MqWD5L577rTXRO61PrhrWUaOlkeOMMYZ9jhb25jWNXarG22VZNZ1H2ueNgjS4MkZEHl7axjkOJ4JWOy5WbbDlrShi3PuXHbum3FKe7u009/te+m6zp3hT8bbOra7Kst4X85j6uQ8fwAAbmQjP5wgz3bpJXv2HbBLHKZOmykfjB5vr/29+QuXyGm7myKQUxEeAQCQRv+Xe6cEG6+90tsuTeUMPHSuIYi2/nGGQs5JL0evYUlKy6C0wVCGACXteurkuP/MTAAA4Ppq2KCezJm7MOXCGcpcFCMToqKjZcGipWY5Pj7BzIGciPAIAIA0NPzp3u15M+ny5TiDm8sHP552N7LUKW3Yk3ECAAA3thLFi8rBw0dk6bLf7BLrs4L1/7+ThkqTP/tSOnftLc+80EO6v9Rf1m/YbLa9OXiYHA8JlSHDR1llm+Tc+XAZPHSEtH/8WWn7WCd54+2hcu7cebMvcD1xqX4AcFPYqdMyZeo0OXzkqF0CwF3ly5WVLs89I8WKFrFLri8uhw1kLy6HnTW8N11/2m2tYvlyZjzDeQsWy5C3BkiJ4sXkm5mzJfhEiLzRr4/MnjPftC4aMWyw+X9t8c/LTZg048vJsv/AIRk4eLh88cl480ulGd/9YK609+aAV8TTy1OGjxgj+QMC5JW/uSossg/vTaloeQQAbti4eat07tpTVq1eK85xYZiYmNyf9DWlry19jQEAkJMlJydL8yb3m3ES585fZFoapW1dvGbdn/Jg43tSfiHS+J47Jcm6zc7de804h06FCwXKSz26yqt9ekh0dLSEhZ2SWytXkpPWHLjeaHkEAG5o26GjlChRzFxKV7/wArg6kpKS5ZkXuktoaJjM+366XXr98Nt9IHvx2/2s4b3p+tOWR+XLlpHHHmkru/fsk3eGjZR+fXvIoSPHrJ/rYNPy6PkX+0iHdq2ldctm5jYaLj39fA/p9vwzUqxYUXl90Hum5VGRwoVk0dJlMvXrmWY5f/4Ac4GN2Lg402oJ1x7vTaloeQQAWaTd1RIuXJCB/fsSHAFXmb6m9LWlrzF9rQEAkNNVubWStGvTQn6YuzDdgNkB+fJKTGysvSZy8WKi9f9bgvj5+dklqT77Ypp06fy0TPjwAxk+5M3LXvUVuB4IjwAgixISHFfECAgIMHMAV5fzteV8rQEAkBNptzWlXdVaP9RUEhNTr7qm6tSuKRs2bUnZb8++/RIZESW3Vqpo1p05k7YwunDhgmlxpM6cPSf7Dhw0y8D1RngEAAAAAEAWOUMhpcFPh/atZPHSZXaJyJOPtrf+9ZBuvV6VgYOHyZDhI6VX9xekUKFAc6U27bo29P3RsvSXX6XlQ01k2AdjzFXWBgx6V9q0bCZr12+UN98Z7jgYcJ0w5hEAZBHjDADZKyeNM8DrHchejCuSNbw3AdmL96ZUtDwCAAAAAACAS4RHAAAAAAAAcInwCAAAAAAAAC4RHgEAAAAAAMAlwiMAAAAAAAC4RHgEAAAAAAAAlwiPAAAAAAAA4BLhEQAAAAAAAFzKVHh09uxZWb9unZnjylF/7qH+3EP9uYf6A25cvH6BGxevXwA3q5z6/pep8OjA/v1yxjpxnePKUX/uof7cQ/25h/oDbly8foEbF69fADernPr+l6nw6JZKlaRQYKCZ48pRf+6h/txD/bmH+gNuXLx+gRsXr18AN6uc+v6XqfAo0DrxBg0bmjmuHPXnHurPPdSfe6g/4MbF6xe4cfH6BXCzyqnvfwyYDQAA8A/yBwSY+Z59dKEBsoPzteV8rQEAchbCIwAAgH8QEJBPSgeVkmEfjJHtO3dLcnIyExPTVZr0NaWvLX2N6WsNAJDzeERERifbywCAKxB8/IR06/myTJ86WcqWCbJLAVwtR48dl47PvSifThprvlReb9ExMdKtR185e+68XQLgagksWEA+/d848c+Txy5BZvBZBMheOe2zyPVEeAQAWcQHNiB75dQPbDt27pZDR47YawDcVaFcOaleraq9hivBZxEgexEepSI8AoAs4gMbkL34wAYAf4/PIkD24rNIKsY8AgAAAAAAgEuERwAAAAAAAHCJ8AgAAAAAAAAuER4BAAAAAADAJcIjAAAAAAAAuER4BAAAAAAAAJcIjwAAAAAAAOAS4REAAAAAAABcIjwCAAAAAACAS4RHAAAAAAAAcInwCAAAAAAAAC4RHgEAAAAAAMAlwiMAwA1hw6YtKRMAAACAa4fwCABwTazfsFm++GqGjJ0w2czXrt8gSUlJZtuCRUulb/9BZtmVixcTZd7CJXLm7Dm7JPOmfj1T9h04aK9dfQMHD5Pvvp9rrwEAAAD/LoRHAIBsFR8fLx9/NtVMGhaVKR0kCRcuyLiJn8r/Pp1q9ilrlXV97mmz/HdiYmLspSszZ95Ce+nqiIyKkv/r3U/iExLMesfHH5Gqt1YyywAAAMC/DeERACBbLVz0s6xdv1Fee6W3dHnuaXmkXSt5scuz0qdnV9m+Y5esXvunHA0+LvsPHrJvIXI+PFzmzF0oX03/Tnbv2WeXphcXF29aImko9c3M2RISetLeciltteRKYmKSLFqyTD7+dKrM+O4HCT0ZZm9x2Ll7rzmPH6zziYiMNGXLfv3dul2idbtfzGPQc9dpwU9LzZRW2jI9R70PDc3mzl8ksXFxphwAgKzwsP44JNtzAFeX47WV+lq7eREeAQCy1Zr1G+SuOxpe0jKnUYPbZcyIoXJno/pmfcXKNWZ+5Ogx6f3KGxIdEyN5/f1l8NARsuSXX802p4sXL8obbw+Vrdt2SMUK5SUuPl66v9T/bwOky0lOTpZ3ho2Q5StWSblyZeT8+XDp2XeAhIQ4jvPt7B9l/MRPpGCB/BJ26pQ5r6joaImJiTXhlc7Vnxu3mIBKz2vugkWmzGnWnHni6ekpwcdDHLePipZKFcvLjl17ZODbw0wIBQBAVhQrVsTM9ZcpAK4+52vL+Vq7mXlEREYTUwNAFgQfPyHder4s06dOlrJlguxSZPRs117y5GMPS8vmTeySS+mYRz8vWyHj/jtchr4/WvLnD5A+PbuZbTNnzZHTf52R+vXqyOw586Tpg40lf0A+GT5yrHw//XPx9fU1+735znCpWL6cad2UUauHO8qHo4ZK5Vsq2iUO2qqoT7+BMm/W1+Lv72/KdEymPHnyyP+90ElatHtS/vvBu1Kt6q0maPpg9HipVaOaFMifXyZO/lw+nzxOcln3r2Me1alVQ5o1aSyPdewiX342QUqWKC4HDh2WXn1fl3nfT5PPv/xGQkLDZOjgN8z9aNDU9tFOMvSdN6RenVqmDOkdPXZcOj73onw6aayUDipllwIA0ho9bqL1f+hv0uqhpnL/fXfbpQDc9euKVbJw8c/ms2e/vr3s0psX4REAZBHhUeb8X69XpX2bltLyocyFR8+80FMe79BW2rZ6yN7qoF3fnOGRthBauXqtTBjzgb1VTLezkJNh8t7br9slqVyFR9qlTge6vq1qZbvEITwiUv7z7iBp0qqDzJn5peTLl9fe4qBd7S4XHj3eoZ28NeR9qXbbrfLU44/IZ1OnyalTp+XNAa/IgEHvStVbK8vzzz5lH8VRNy2tD/vt27SwS5AW4REAZM7Ejz+T+T/R+gi42tq0bC69une1125uhEcAkEWER5nz7n9GSfFiReXFLp3tklRr1v0pdzSsny480q5d2oLnn8KjP9asl/Gj/2NvFfn4sy/lxIkQGfrOQLsklavwaN7CxdYx55sxmDLSrnZZCY9WrFwtM2bNkY/Hj5Jnnu8hL7/UXW6vW0sGDHpPbqtSWZ7r9KR9FJEXe/eT5k0fMONA4VKERwBwZbJ6YQkAl9KW6EjFmEcAgGx1e53a8vuqtbJtxy67xEHDn5FjJpggJq1bK98iR44G22sii39eLiNGf2SvOWhYd/xESMql/lVISKgEBZW01zKnTFCQGSepfr26JizSKSkpWWrXrGG2a/e54yEhZlm995///uMl+RvcXteEWPv2H5RE6/zq1KpuysuXLS3Hjp8wy0rPXVtKlSpZ3C4BAMA9+mWXiYnp6kxIz2vgm4OG2MsAgCsQEREp8xculg7t20iB/AF2KTLSoEcDGm3ho2MXHT0WLCv/WCMzvptjumu1btFM9h04KIcOH5UWzR6UwMACplVPvrz+5nbTZswy4x3pOEN79u2XCuXLyp0NG8jK1eus2xwRXx8fWb1uvSxc9Iu88tKLJvDJaP5Pi8Xby1s2b9mebnqo2QNm4OoNm7ZIbr/cZvmj/31mBuHWli5RkdGycPEv1rnkNSHX3AWL5WXrPnSgbB3Eu1BgQXOOOrZRieLFpNptVcTHx9tcsU3LK1YoJ7fXrW3OoXChQjJl6jRru4/Ex8eb+tBxj17o/LQZUBuXCg+PkO9/XGBaoeUP4DUGAABwvRAeAUAWER5ljre3twlQNGg5ffovCTv1l/j55ZKH2+o4SE3NPhoeaR3Wrlnd7FezWlXZtGWbHAs+Ic0evF/atX5Ijp8I1eukmi5kt1aqKA82vkcOHzlq9tOrqPbp1U3KlSltjpdRdEyseHp5XjJpV7OmD9xnndNp2bh5q0RGRUnnp5+U+vUcgU/d2jVNwLNx0xa5mJho7qNs6SApWqSw9bi85MixYBMa6bKGQhoeqbz+eeTM2XPS5P57U0IPvWKbtkravnO37Ny1V0qWKCavvtTd3A6XR3h0femVAH9a8oss/WW51Kh+m8uf1UHvDJOECwlSqWIFuyTVxI+nyA7rZ76O9VoCAAA3LsY8AoAsYswjIHsx5tH1cyIkVL7/cb5pJafdSP/7/ruSO3due2t6uq8qVbKEmeuVCXXSFnWTPvncjAvW5blnzDYAAHBjop08AAAA0tFAqHSpUvLAffdIcnLq2GKX88vyFbJtx06zvP/AIdM9c/ykT2TegkXi6eFhgiQAAHBjIzwCAABAOrn9/OThTF4FcN/+A2YeHR0j07+dbQaDv7NRA9PtzcPTw2wDAAA3NsIjAAAApKNjHF2pQ0eOyMmwU9L0wcZmfK8WzZtI+PkIeysAALiRER4BAADAbTrAea5cvhJYsKBZ9/Pzkzx5ctNtDQCAfwHCIwAAALjN08P6WJnsGDDbKTEpySoiPAIA4EZHeAQAAACXPDwyN25RwcACEhMbK6Enw8y6tkQKCzttAiUAAHBjIzwCAABAOlO/niHjJkyWVavXWWse8smUr8z6gUOHHTtcRsXy5aXSLRXkh7kLZI41ffXNTClfrgzZEQAA/wKERwAAAEinZIniUrVKZTO1a90iZfly7r37TtNlzdfXRzp1fEKqV6sqsXHxUrdObSldupSULRNk7wkAAG5UHhGR0fxCCACyIPj4CenW82WZPnUyX46AbHD02HHp+NyL8umksVI6qJRdCgAAgGuNlkcAAAAAAABwifAIAAAAAAAALhEeAQAAAAAAwCXCIwAAAAAAALhEeAQAAAAAAACXCI8AAAAAAADgEuERAAAAAAAAXCI8AgAAQDoJCRdk0uQp0qffG9Lr5ddk/KRP5OLFi2bb08/9n8TGxZll1aNPP/ljzTqz/MwL3eW331dJh6c6y4qVq2XNuj+l+0v9pFff1+TZLj1k5JjxEhcXb/ZdvHSZdO7aU14d8Jb8X69XzP0lJiaZbQAAIGchPAIAAEA6n3/1jcQnJMiYEcNktDWFhJ6U2XPmm21x8Y7wx8nDw0OSkpLtNZHVa9fLl59OkurVqso3M2fJU493kInjRsknk8ZKfHyC/PLrbxJ26pRMnjJV+vXtJWNGDjP3s237Tln+2wr7KAAAICchPAIAAEA6q1avlTsa1hdvb2/xy5VLXnmph7R6qKm9NT1fX1/rX0d45GH9adSgvuTN6y+FAgtKkcKFzbEOHDxk7ZIsbw/sL61bNJdtO3ZJieLFpGaNauZ2un/dOrVk2/ZdZh0AAOQshEcAAABIR7uo5fX3t9dEihUtIvny5bXX0vP09JTkZDs88hAJDCxgllXv7l0lsGABGT1ukvTo018+HP8/iYmJkajIaOv46Y/nb91fZFSUvQYAAHISwiMAAACkU7hQIYmITA1yDh46LCfDTtlrFruXWlJSkkRERKYJjzz0X7OsChUKlO7dnpf/jf+vDH3nTTl05Igs+Gmp5M+fT6Jjou29HKKjo8XfP4+9BgAAchLCIwAAAKRTv14dWbNuvWmBdOHCBZk5a44s+Xm52aaDWuuYRRoYbd6yTRKTklLCI216pPs7vfzamxJ8PMQslyxRXMqUDjKDbdeofpsZR2nn7j1mW2xsnGzeuk1q16xh1gEAQM5CeAQAAIB0HuvQTiIjo+SlV9+Q3q+8bgKhx60y1bzpAzJg0BDp23+grFy9VooVKaLDGRmeZvDs1CumNb73bnnjrSHyyoBB0rPva3I+PELatW5hxkJ6sctz8p+RH0r/gYOtY70htWvVlAfvv9e+JQAAyEk8IiKj7f/uAQBXIvj4CenW82WZPnWylC0TZJcCuFqOHjsuHZ97UT6dNFZKB5WySwEAAHCt0fIIAAAAAAAALhEeAQAAAAAAwCXCIwAAAAAAALhEeAQAAAAAAACXCI8AAACQaTt37THTkaPH7BIAAPBvR3gEAACATNu1e6/8sXadvQYAAG4GhEcAAAC4IjExsfYSAAC4GRAeAQAA4BL7DxyUuQsWyQ8/zpftO3fbpemtXrPeTE579+1PWV/26+9m2rf/gMyd/5MsXrpMwsMjZMeu3fL9nHmycPHPEhkZZfZ1Hke7ws2Zt1AW/LREYmNTA6qYmBj5ZfkKmfXDXPl1xSqJj4+3twAAgGuB8AgAAADp/L5qtbw5eJjExsZJsrU+9P1RsvjnZY6NaWzfuUu2WZNTfEKCTJj8mVlOSk6SFSv/MIHPhYsXZeUfa+Tb2XNMiJSUnGy2aTildu/dZ47zzczZkmxtW7VmnYydMNlsi4uLk/4DB5vQKbefn6zfsFHeGfqBXLhwwWwHAADZj/AIAAAA6Zw9d15atWgmTz72sHRo30Yeadda1q3faG9NlZiYaC85eHt7iyRr3CTiYf05eixYOnV8Qh59uK3cdUdDORZ8XDo+8ag89kg7ufvORqZVktnXw0O2bd8pr/frY+7rWes2W7ZuN9sWLVkm/v7+0rfXi9K6ZXPp/3JvORl2Sv7cuNlsBwAA2Y/wCACyyNfX18wjIiLMHMDV5XxtOV9ruHZaPdRUihUtIpMmT5FRH35kQp+MQZGKy9B9zNfH17QqUhoIFS9eTEoHlTLr+jxqWdEiRex1H4mNizPLWl6uTGlH+GTJkydPyjbtyla+XFmzj/Ly8pLSpYPMOQEAgGuD8AgAski/WPn6+Mj7/x0nSUmOL0sArg59TelrS19j+lrDtfXBf8fKxs1b5Y6G9aVD+7ZS+ZaK9pb0Ll5MHyglJl403c6UZj3eXt4poY/y8vYSL6/Uj5/eXl5mrvv45kofEnrat9Pub16e6T+yenp6XDbMAgAA2cMjIjKabzwAkEX65WrQO8OsLzKeUjqopF0KwF3Bx0MkKSlJhr/7ltSrU8suxbXyZKeuMuiNV6VGtdvM+tgJH8vZs+fkvcEDZdb3c+VEaKi0b9NSFixaarb37t7VzJf8slw+n/qNfDttiiz/baUs+XmZfDDsHRMO6YDXv/2+St4Z9Lr4+HibMZTWrtsgQ956Xb6cNlPCTp2WAa++ZI5z5GiwvDZwsMya/oXMnPWD7N13wLrdALNN9ez7mune1uSB++wSAACQnWh5BABu0C+1X342yYzdoS0lmJiYrs6kryl9bREcXR/FixeV9X9ukv0HD8mM77433cbOh4fLgYOHzXYNzFWVypXM2ENbt+2Qtes3yMZNW01LIaWBkQ6UfdGanBIuXEjXYsjZTU33TUhIMMtO2j1NNb73btmxc7e5OtvBQ0ccA3Bbx2lYv57ZDgAAsh8tjwAAAJCOjif047yFEhEZKfXr1ZX777vbtA7S1mCBBQtKdEyMNL73LilXtoxMm/GdHDh0WEqXKiXNmtwvS35eLl2f72RaGR08fESe79TRhE3a8uhocLB0euoJM96Rtjw6ERIqXTo/I19P/85cVa3bC8+a+9eWRz8v+zVlff+BQ6YVkw7kXbJEcWnT6iG6MwIAcA0RHgEAAAAAAMAluq0BAAAAAADAJcIjAAAAAAAAuER4BAAAAAAAAJcIjwAAAAAAAOAS4REAAAAAAABcIjwCAABAOnPmLZQhw0bInxs22yUOq1avldffetde+3tr1v0pW7ftsNcAAMCNjPAIAAAAlyhatIjM/2mxREZG2SUiHh4ecvHCRXvNtcTEJFn26+/2GgAAuNF5DXxz0BB72aWzZ8/K9m3bJHeePJI7d267FJlF/bmH+nMP9ece6s891J97qD/3UH9Zt2fvfvnrrzMSFnZKwiMipFbN6qb8xIlQ2bVnrzRv+oBZ/33Vapk0eYrMmPWDrF6zXvLkyS1lSgfJmPETZf+BQ3Lq9F8SEnpSqlerKjO/+0E+mfKlzJ4zT7bv2CnlypaR/PkDzHH+jfj5cw/15x7qzz3Un3uoP/fk1PrLVMujA/v3yxnrAegcV476cw/15x7qzz3Un3uoP/dQf+6h/txz/tx5qVK5oixeukz27T9oyjw8PcxcaTj04fj/yaOPtJP/jRslj7RvLeMmTJbg4BPSttVDcjExUdq0bC4N6teT31etkcU/L5MB/frIxLEjpVTJkvLxp1/YR/p34ufPPdSfe6g/91B/7qH+3JNT6y9T4dEtlSpJocBAM8eVo/7cQ/25h/pzD/XnHurPPdSfe6g/92iroHq1a8rddzaS+T8tkcTERNNtzWndnxuldq0aUr9eHcmVK5c0rF9PypcrKxs3b5ESJYrbe4lUsMpur1dbRr3/nhQrWkTiExKkXp1aciz4uL3HvxM/f+6h/txD/bmH+nMP9eeenFp/HhGR0cn2MgAAAGAGzD5xIkR69+gmYadOy/ujxkqrFk2lQECAzJw1R0aPGCrjJk4WT09Pecnax+n9UR9KsaJF5bEO7aT3K6/Lqy/1MF3ejh4LlilTp8n58HDx8/Mztzt+/IRM+2KyfUsAAJCTMWA2AAAALpFs/3pRWwu1adlMFvy0RDw8Uz865smdWxISEuw1h4SEC+Lr62Ovpfp6+rcmVBr9wVAZOXyIdGjfxt4CAABuBIRHAAAAuESy9cfp3nvuknJlyqS79H7VWyubgbXj4uPNenR0jBw8dFgqV7rFrBseGkIlS3hEpBQvXlR8fHwkMSnJXMYfAADcODJ1tTUAAADcPDQUCg+PkEYNbjfrXp6eUrhQoHw7+0czvpFeba1MmSDZvWefzFuwSA4cOiyzf5gnVatUdrQqSk6WLdt2yO7de2Xv/oNS7bYqMuuHuRJ6Mkxmff+jPHDfPbJi5Wo5c/acNLi9rrkPAACQczHmEQAAALLswMFDcu7ceSlSpLC5/L7T6b/OmJZIgQULmNZIh48cs8r+krKlg6RYsaISGnpSIqOirW0V7VsAAICcivAIAAAAAAAALjHmEQAAAAAAAFwiPAIAAAAAAIBLhEcAAAAAAABwifAIAAAAAAAALhEeAQAAAAAAwCXCIwAAAAAAALhEeAQAAAAAAACXCI8AAAAAAADgEuERAAAAAAAAXCI8AgAAAAAAgEuERwAAAAAAAHCJ8AgAAAAAAAAuER4BAAAAAADAJcIjAAAAAAAAuER4BAAAAAAAAJcIjwAAAAAAAOAS4REAAAAAAABcIjwCAAAAAACAS4RHAAAAAAAAcInwCAAAAAAAAC6I/D+xJfFa7VZwXgAAAABJRU5ErkJggg==;" parent="WIyWlLk6GJQsqaUBKTNV-1" vertex="1">
          <mxGeometry x="-10" y="40" width="957" height="414.13" as="geometry" />
        </mxCell>
        <mxCell id="nOhS7p640s0jMjEh398m-59" style="edgeStyle=orthogonalEdgeStyle;rounded=0;orthogonalLoop=1;jettySize=auto;html=1;exitX=0.5;exitY=0;exitDx=0;exitDy=0;entryX=-0.054;entryY=0.5;entryDx=0;entryDy=0;entryPerimeter=0;" parent="WIyWlLk6GJQsqaUBKTNV-1" source="nOhS7p640s0jMjEh398m-1" target="nOhS7p640s0jMjEh398m-32" edge="1">
          <mxGeometry relative="1" as="geometry" />
        </mxCell>
        <mxCell id="nOhS7p640s0jMjEh398m-1" value="Alumno" style="swimlane;fontStyle=1;align=center;verticalAlign=top;childLayout=stackLayout;horizontal=1;startSize=26;horizontalStack=0;resizeParent=1;resizeParentMax=0;resizeLast=0;collapsible=1;marginBottom=0;whiteSpace=wrap;html=1;" parent="WIyWlLk6GJQsqaUBKTNV-1" vertex="1">
          <mxGeometry x="407" y="717" width="160" height="138" as="geometry" />
        </mxCell>
        <mxCell id="nOhS7p640s0jMjEh398m-2" value="+ nombre: String" style="text;strokeColor=none;fillColor=none;align=left;verticalAlign=top;spacingLeft=4;spacingRight=4;overflow=hidden;rotatable=0;points=[[0,0.5],[1,0.5]];portConstraint=eastwest;whiteSpace=wrap;html=1;" parent="nOhS7p640s0jMjEh398m-1" vertex="1">
          <mxGeometry y="26" width="160" height="26" as="geometry" />
        </mxCell>
        <mxCell id="nOhS7p640s0jMjEh398m-42" value="+ dni: Integer" style="text;strokeColor=none;fillColor=none;align=left;verticalAlign=top;spacingLeft=4;spacingRight=4;overflow=hidden;rotatable=0;points=[[0,0.5],[1,0.5]];portConstraint=eastwest;whiteSpace=wrap;html=1;" parent="nOhS7p640s0jMjEh398m-1" vertex="1">
          <mxGeometry y="52" width="160" height="26" as="geometry" />
        </mxCell>
        <mxCell id="nOhS7p640s0jMjEh398m-41" value="+ apellido: String" style="text;strokeColor=none;fillColor=none;align=left;verticalAlign=top;spacingLeft=4;spacingRight=4;overflow=hidden;rotatable=0;points=[[0,0.5],[1,0.5]];portConstraint=eastwest;whiteSpace=wrap;html=1;" parent="nOhS7p640s0jMjEh398m-1" vertex="1">
          <mxGeometry y="78" width="160" height="26" as="geometry" />
        </mxCell>
        <mxCell id="nOhS7p640s0jMjEh398m-3" value="" style="line;strokeWidth=1;fillColor=none;align=left;verticalAlign=middle;spacingTop=-1;spacingLeft=3;spacingRight=3;rotatable=0;labelPosition=right;points=[];portConstraint=eastwest;strokeColor=inherit;" parent="nOhS7p640s0jMjEh398m-1" vertex="1">
          <mxGeometry y="104" width="160" height="8" as="geometry" />
        </mxCell>
        <mxCell id="nOhS7p640s0jMjEh398m-4" value="+ method(type): type" style="text;strokeColor=none;fillColor=none;align=left;verticalAlign=top;spacingLeft=4;spacingRight=4;overflow=hidden;rotatable=0;points=[[0,0.5],[1,0.5]];portConstraint=eastwest;whiteSpace=wrap;html=1;" parent="nOhS7p640s0jMjEh398m-1" vertex="1">
          <mxGeometry y="112" width="160" height="26" as="geometry" />
        </mxCell>
        <mxCell id="nOhS7p640s0jMjEh398m-60" style="edgeStyle=orthogonalEdgeStyle;rounded=0;orthogonalLoop=1;jettySize=auto;html=1;exitX=0.5;exitY=0;exitDx=0;exitDy=0;" parent="WIyWlLk6GJQsqaUBKTNV-1" source="nOhS7p640s0jMjEh398m-5" edge="1">
          <mxGeometry relative="1" as="geometry">
            <mxPoint x="640" y="650" as="targetPoint" />
          </mxGeometry>
        </mxCell>
        <mxCell id="nOhS7p640s0jMjEh398m-5" value="Nota" style="swimlane;fontStyle=1;align=center;verticalAlign=top;childLayout=stackLayout;horizontal=1;startSize=26;horizontalStack=0;resizeParent=1;resizeParentMax=0;resizeLast=0;collapsible=1;marginBottom=0;whiteSpace=wrap;html=1;" parent="WIyWlLk6GJQsqaUBKTNV-1" vertex="1">
          <mxGeometry x="640" y="756" width="190" height="164" as="geometry" />
        </mxCell>
        <mxCell id="nOhS7p640s0jMjEh398m-6" value="+ parcial1: Integer" style="text;strokeColor=none;fillColor=none;align=left;verticalAlign=top;spacingLeft=4;spacingRight=4;overflow=hidden;rotatable=0;points=[[0,0.5],[1,0.5]];portConstraint=eastwest;whiteSpace=wrap;html=1;" parent="nOhS7p640s0jMjEh398m-5" vertex="1">
          <mxGeometry y="26" width="190" height="26" as="geometry" />
        </mxCell>
        <mxCell id="Z_7Ps_ruIOWtPHT-ZNbl-10" value="+ parcial2: Integer" style="text;strokeColor=none;fillColor=none;align=left;verticalAlign=top;spacingLeft=4;spacingRight=4;overflow=hidden;rotatable=0;points=[[0,0.5],[1,0.5]];portConstraint=eastwest;whiteSpace=wrap;html=1;" vertex="1" parent="nOhS7p640s0jMjEh398m-5">
          <mxGeometry y="52" width="190" height="26" as="geometry" />
        </mxCell>
        <mxCell id="Z_7Ps_ruIOWtPHT-ZNbl-11" value="+ recuperatoria1:Integer" style="text;strokeColor=none;fillColor=none;align=left;verticalAlign=top;spacingLeft=4;spacingRight=4;overflow=hidden;rotatable=0;points=[[0,0.5],[1,0.5]];portConstraint=eastwest;whiteSpace=wrap;html=1;" vertex="1" parent="nOhS7p640s0jMjEh398m-5">
          <mxGeometry y="78" width="190" height="26" as="geometry" />
        </mxCell>
        <mxCell id="Z_7Ps_ruIOWtPHT-ZNbl-12" value="+ recuperatoria2:Integer" style="text;strokeColor=none;fillColor=none;align=left;verticalAlign=top;spacingLeft=4;spacingRight=4;overflow=hidden;rotatable=0;points=[[0,0.5],[1,0.5]];portConstraint=eastwest;whiteSpace=wrap;html=1;" vertex="1" parent="nOhS7p640s0jMjEh398m-5">
          <mxGeometry y="104" width="190" height="26" as="geometry" />
        </mxCell>
        <mxCell id="nOhS7p640s0jMjEh398m-7" value="" style="line;strokeWidth=1;fillColor=none;align=left;verticalAlign=middle;spacingTop=-1;spacingLeft=3;spacingRight=3;rotatable=0;labelPosition=right;points=[];portConstraint=eastwest;strokeColor=inherit;" parent="nOhS7p640s0jMjEh398m-5" vertex="1">
          <mxGeometry y="130" width="190" height="8" as="geometry" />
        </mxCell>
        <mxCell id="nOhS7p640s0jMjEh398m-8" value="+ sacarPromedio(type): Double" style="text;strokeColor=none;fillColor=none;align=left;verticalAlign=top;spacingLeft=4;spacingRight=4;overflow=hidden;rotatable=0;points=[[0,0.5],[1,0.5]];portConstraint=eastwest;whiteSpace=wrap;html=1;" parent="nOhS7p640s0jMjEh398m-5" vertex="1">
          <mxGeometry y="138" width="190" height="26" as="geometry" />
        </mxCell>
        <mxCell id="nOhS7p640s0jMjEh398m-13" value="Profesor" style="swimlane;fontStyle=1;align=center;verticalAlign=top;childLayout=stackLayout;horizontal=1;startSize=26;horizontalStack=0;resizeParent=1;resizeParentMax=0;resizeLast=0;collapsible=1;marginBottom=0;whiteSpace=wrap;html=1;" parent="WIyWlLk6GJQsqaUBKTNV-1" vertex="1">
          <mxGeometry x="30" y="560" width="160" height="138" as="geometry" />
        </mxCell>
        <mxCell id="nOhS7p640s0jMjEh398m-14" value="+ nombre: String" style="text;strokeColor=none;fillColor=none;align=left;verticalAlign=top;spacingLeft=4;spacingRight=4;overflow=hidden;rotatable=0;points=[[0,0.5],[1,0.5]];portConstraint=eastwest;whiteSpace=wrap;html=1;" parent="nOhS7p640s0jMjEh398m-13" vertex="1">
          <mxGeometry y="26" width="160" height="26" as="geometry" />
        </mxCell>
        <mxCell id="nOhS7p640s0jMjEh398m-44" value="+ apellido: String" style="text;strokeColor=none;fillColor=none;align=left;verticalAlign=top;spacingLeft=4;spacingRight=4;overflow=hidden;rotatable=0;points=[[0,0.5],[1,0.5]];portConstraint=eastwest;whiteSpace=wrap;html=1;" parent="nOhS7p640s0jMjEh398m-13" vertex="1">
          <mxGeometry y="52" width="160" height="26" as="geometry" />
        </mxCell>
        <mxCell id="nOhS7p640s0jMjEh398m-45" value="+ dni: Integer" style="text;strokeColor=none;fillColor=none;align=left;verticalAlign=top;spacingLeft=4;spacingRight=4;overflow=hidden;rotatable=0;points=[[0,0.5],[1,0.5]];portConstraint=eastwest;whiteSpace=wrap;html=1;" parent="nOhS7p640s0jMjEh398m-13" vertex="1">
          <mxGeometry y="78" width="160" height="26" as="geometry" />
        </mxCell>
        <mxCell id="nOhS7p640s0jMjEh398m-15" value="" style="line;strokeWidth=1;fillColor=none;align=left;verticalAlign=middle;spacingTop=-1;spacingLeft=3;spacingRight=3;rotatable=0;labelPosition=right;points=[];portConstraint=eastwest;strokeColor=inherit;" parent="nOhS7p640s0jMjEh398m-13" vertex="1">
          <mxGeometry y="104" width="160" height="8" as="geometry" />
        </mxCell>
        <mxCell id="nOhS7p640s0jMjEh398m-16" value="+ method(type): type" style="text;strokeColor=none;fillColor=none;align=left;verticalAlign=top;spacingLeft=4;spacingRight=4;overflow=hidden;rotatable=0;points=[[0,0.5],[1,0.5]];portConstraint=eastwest;whiteSpace=wrap;html=1;" parent="nOhS7p640s0jMjEh398m-13" vertex="1">
          <mxGeometry y="112" width="160" height="26" as="geometry" />
        </mxCell>
        <mxCell id="nOhS7p640s0jMjEh398m-17" value="Curso" style="swimlane;fontStyle=1;align=center;verticalAlign=top;childLayout=stackLayout;horizontal=1;startSize=26;horizontalStack=0;resizeParent=1;resizeParentMax=0;resizeLast=0;collapsible=1;marginBottom=0;whiteSpace=wrap;html=1;" parent="WIyWlLk6GJQsqaUBKTNV-1" vertex="1">
          <mxGeometry x="230" y="460" width="320" height="216" as="geometry" />
        </mxCell>
        <mxCell id="nOhS7p640s0jMjEh398m-18" value="+codigo:Integer" style="text;strokeColor=none;fillColor=none;align=left;verticalAlign=top;spacingLeft=4;spacingRight=4;overflow=hidden;rotatable=0;points=[[0,0.5],[1,0.5]];portConstraint=eastwest;whiteSpace=wrap;html=1;" parent="nOhS7p640s0jMjEh398m-17" vertex="1">
          <mxGeometry y="26" width="320" height="26" as="geometry" />
        </mxCell>
        <mxCell id="nOhS7p640s0jMjEh398m-65" value="+ materia: Materia" style="text;strokeColor=none;fillColor=none;align=left;verticalAlign=top;spacingLeft=4;spacingRight=4;overflow=hidden;rotatable=0;points=[[0,0.5],[1,0.5]];portConstraint=eastwest;whiteSpace=wrap;html=1;" parent="nOhS7p640s0jMjEh398m-17" vertex="1">
          <mxGeometry y="52" width="320" height="26" as="geometry" />
        </mxCell>
        <mxCell id="nOhS7p640s0jMjEh398m-46" value="+ dia: Integer" style="text;strokeColor=none;fillColor=none;align=left;verticalAlign=top;spacingLeft=4;spacingRight=4;overflow=hidden;rotatable=0;points=[[0,0.5],[1,0.5]];portConstraint=eastwest;whiteSpace=wrap;html=1;" parent="nOhS7p640s0jMjEh398m-17" vertex="1">
          <mxGeometry y="78" width="320" height="26" as="geometry" />
        </mxCell>
        <mxCell id="nOhS7p640s0jMjEh398m-48" value="+ cicloLectivo: CicloLectivo" style="text;strokeColor=none;fillColor=none;align=left;verticalAlign=top;spacingLeft=4;spacingRight=4;overflow=hidden;rotatable=0;points=[[0,0.5],[1,0.5]];portConstraint=eastwest;whiteSpace=wrap;html=1;" parent="nOhS7p640s0jMjEh398m-17" vertex="1">
          <mxGeometry y="104" width="320" height="26" as="geometry" />
        </mxCell>
        <mxCell id="nOhS7p640s0jMjEh398m-49" value="+ aula: Aula" style="text;strokeColor=none;fillColor=none;align=left;verticalAlign=top;spacingLeft=4;spacingRight=4;overflow=hidden;rotatable=0;points=[[0,0.5],[1,0.5]];portConstraint=eastwest;whiteSpace=wrap;html=1;" parent="nOhS7p640s0jMjEh398m-17" vertex="1">
          <mxGeometry y="130" width="320" height="26" as="geometry" />
        </mxCell>
        <mxCell id="nOhS7p640s0jMjEh398m-47" value="+ horario: String" style="text;strokeColor=none;fillColor=none;align=left;verticalAlign=top;spacingLeft=4;spacingRight=4;overflow=hidden;rotatable=0;points=[[0,0.5],[1,0.5]];portConstraint=eastwest;whiteSpace=wrap;html=1;" parent="nOhS7p640s0jMjEh398m-17" vertex="1">
          <mxGeometry y="156" width="320" height="26" as="geometry" />
        </mxCell>
        <mxCell id="nOhS7p640s0jMjEh398m-19" value="" style="line;strokeWidth=1;fillColor=none;align=left;verticalAlign=middle;spacingTop=-1;spacingLeft=3;spacingRight=3;rotatable=0;labelPosition=right;points=[];portConstraint=eastwest;strokeColor=inherit;" parent="nOhS7p640s0jMjEh398m-17" vertex="1">
          <mxGeometry y="182" width="320" height="8" as="geometry" />
        </mxCell>
        <mxCell id="nOhS7p640s0jMjEh398m-20" value="buscarmateria(codMateria,dia,horario,cicloLectivo):boole" style="text;strokeColor=none;fillColor=none;align=left;verticalAlign=top;spacingLeft=4;spacingRight=4;overflow=hidden;rotatable=0;points=[[0,0.5],[1,0.5]];portConstraint=eastwest;whiteSpace=wrap;html=1;" parent="nOhS7p640s0jMjEh398m-17" vertex="1">
          <mxGeometry y="190" width="320" height="26" as="geometry" />
        </mxCell>
        <mxCell id="nOhS7p640s0jMjEh398m-61" style="edgeStyle=orthogonalEdgeStyle;rounded=0;orthogonalLoop=1;jettySize=auto;html=1;exitX=0.5;exitY=0;exitDx=0;exitDy=0;" parent="WIyWlLk6GJQsqaUBKTNV-1" source="nOhS7p640s0jMjEh398m-21" target="nOhS7p640s0jMjEh398m-32" edge="1">
          <mxGeometry relative="1" as="geometry" />
        </mxCell>
        <mxCell id="nOhS7p640s0jMjEh398m-21" value="Materia" style="swimlane;fontStyle=1;align=center;verticalAlign=top;childLayout=stackLayout;horizontal=1;startSize=26;horizontalStack=0;resizeParent=1;resizeParentMax=0;resizeLast=0;collapsible=1;marginBottom=0;whiteSpace=wrap;html=1;" parent="WIyWlLk6GJQsqaUBKTNV-1" vertex="1">
          <mxGeometry x="890" y="730" width="160" height="112" as="geometry" />
        </mxCell>
        <mxCell id="nOhS7p640s0jMjEh398m-22" value="+ nombre: String" style="text;strokeColor=none;fillColor=none;align=left;verticalAlign=top;spacingLeft=4;spacingRight=4;overflow=hidden;rotatable=0;points=[[0,0.5],[1,0.5]];portConstraint=eastwest;whiteSpace=wrap;html=1;" parent="nOhS7p640s0jMjEh398m-21" vertex="1">
          <mxGeometry y="26" width="160" height="26" as="geometry" />
        </mxCell>
        <mxCell id="nOhS7p640s0jMjEh398m-43" value="+ codMateria: Integer" style="text;strokeColor=none;fillColor=none;align=left;verticalAlign=top;spacingLeft=4;spacingRight=4;overflow=hidden;rotatable=0;points=[[0,0.5],[1,0.5]];portConstraint=eastwest;whiteSpace=wrap;html=1;" parent="nOhS7p640s0jMjEh398m-21" vertex="1">
          <mxGeometry y="52" width="160" height="26" as="geometry" />
        </mxCell>
        <mxCell id="nOhS7p640s0jMjEh398m-23" value="" style="line;strokeWidth=1;fillColor=none;align=left;verticalAlign=middle;spacingTop=-1;spacingLeft=3;spacingRight=3;rotatable=0;labelPosition=right;points=[];portConstraint=eastwest;strokeColor=inherit;" parent="nOhS7p640s0jMjEh398m-21" vertex="1">
          <mxGeometry y="78" width="160" height="8" as="geometry" />
        </mxCell>
        <mxCell id="nOhS7p640s0jMjEh398m-24" value="+ method(type): type" style="text;strokeColor=none;fillColor=none;align=left;verticalAlign=top;spacingLeft=4;spacingRight=4;overflow=hidden;rotatable=0;points=[[0,0.5],[1,0.5]];portConstraint=eastwest;whiteSpace=wrap;html=1;" parent="nOhS7p640s0jMjEh398m-21" vertex="1">
          <mxGeometry y="86" width="160" height="26" as="geometry" />
        </mxCell>
        <mxCell id="nOhS7p640s0jMjEh398m-25" value="CicloLectivo" style="swimlane;fontStyle=1;align=center;verticalAlign=top;childLayout=stackLayout;horizontal=1;startSize=26;horizontalStack=0;resizeParent=1;resizeParentMax=0;resizeLast=0;collapsible=1;marginBottom=0;whiteSpace=wrap;html=1;" parent="WIyWlLk6GJQsqaUBKTNV-1" vertex="1">
          <mxGeometry x="337" y="896" width="160" height="138" as="geometry" />
        </mxCell>
        <mxCell id="nOhS7p640s0jMjEh398m-26" value="+primerCuatri: String" style="text;strokeColor=none;fillColor=none;align=left;verticalAlign=top;spacingLeft=4;spacingRight=4;overflow=hidden;rotatable=0;points=[[0,0.5],[1,0.5]];portConstraint=eastwest;whiteSpace=wrap;html=1;" parent="nOhS7p640s0jMjEh398m-25" vertex="1">
          <mxGeometry y="26" width="160" height="26" as="geometry" />
        </mxCell>
        <mxCell id="nOhS7p640s0jMjEh398m-56" value="+ fechaDeInicio: String" style="text;strokeColor=none;fillColor=none;align=left;verticalAlign=top;spacingLeft=4;spacingRight=4;overflow=hidden;rotatable=0;points=[[0,0.5],[1,0.5]];portConstraint=eastwest;whiteSpace=wrap;html=1;" parent="nOhS7p640s0jMjEh398m-25" vertex="1">
          <mxGeometry y="52" width="160" height="26" as="geometry" />
        </mxCell>
        <mxCell id="nOhS7p640s0jMjEh398m-55" value="+ segundoCuatri: String" style="text;strokeColor=none;fillColor=none;align=left;verticalAlign=top;spacingLeft=4;spacingRight=4;overflow=hidden;rotatable=0;points=[[0,0.5],[1,0.5]];portConstraint=eastwest;whiteSpace=wrap;html=1;" parent="nOhS7p640s0jMjEh398m-25" vertex="1">
          <mxGeometry y="78" width="160" height="26" as="geometry" />
        </mxCell>
        <mxCell id="nOhS7p640s0jMjEh398m-27" value="" style="line;strokeWidth=1;fillColor=none;align=left;verticalAlign=middle;spacingTop=-1;spacingLeft=3;spacingRight=3;rotatable=0;labelPosition=right;points=[];portConstraint=eastwest;strokeColor=inherit;" parent="nOhS7p640s0jMjEh398m-25" vertex="1">
          <mxGeometry y="104" width="160" height="8" as="geometry" />
        </mxCell>
        <mxCell id="nOhS7p640s0jMjEh398m-28" value="+ method(type): type" style="text;strokeColor=none;fillColor=none;align=left;verticalAlign=top;spacingLeft=4;spacingRight=4;overflow=hidden;rotatable=0;points=[[0,0.5],[1,0.5]];portConstraint=eastwest;whiteSpace=wrap;html=1;" parent="nOhS7p640s0jMjEh398m-25" vertex="1">
          <mxGeometry y="112" width="160" height="26" as="geometry" />
        </mxCell>
        <mxCell id="nOhS7p640s0jMjEh398m-29" value="CursoAlumno" style="swimlane;fontStyle=1;align=center;verticalAlign=top;childLayout=stackLayout;horizontal=1;startSize=26;horizontalStack=0;resizeParent=1;resizeParentMax=0;resizeLast=0;collapsible=1;marginBottom=0;whiteSpace=wrap;html=1;" parent="WIyWlLk6GJQsqaUBKTNV-1" vertex="1">
          <mxGeometry x="630" y="480" width="190" height="164" as="geometry" />
        </mxCell>
        <mxCell id="nOhS7p640s0jMjEh398m-53" value="+ id: Integer" style="text;strokeColor=none;fillColor=none;align=left;verticalAlign=top;spacingLeft=4;spacingRight=4;overflow=hidden;rotatable=0;points=[[0,0.5],[1,0.5]];portConstraint=eastwest;whiteSpace=wrap;html=1;" parent="nOhS7p640s0jMjEh398m-29" vertex="1">
          <mxGeometry y="26" width="190" height="26" as="geometry" />
        </mxCell>
        <mxCell id="nOhS7p640s0jMjEh398m-51" value="+ alumno: Alumno" style="text;strokeColor=none;fillColor=none;align=left;verticalAlign=top;spacingLeft=4;spacingRight=4;overflow=hidden;rotatable=0;points=[[0,0.5],[1,0.5]];portConstraint=eastwest;whiteSpace=wrap;html=1;" parent="nOhS7p640s0jMjEh398m-29" vertex="1">
          <mxGeometry y="52" width="190" height="26" as="geometry" />
        </mxCell>
        <mxCell id="nOhS7p640s0jMjEh398m-30" value="+ curso: Curso" style="text;strokeColor=none;fillColor=none;align=left;verticalAlign=top;spacingLeft=4;spacingRight=4;overflow=hidden;rotatable=0;points=[[0,0.5],[1,0.5]];portConstraint=eastwest;whiteSpace=wrap;html=1;" parent="nOhS7p640s0jMjEh398m-29" vertex="1">
          <mxGeometry y="78" width="190" height="26" as="geometry" />
        </mxCell>
        <mxCell id="nOhS7p640s0jMjEh398m-52" value="+ nota: Nota" style="text;strokeColor=none;fillColor=none;align=left;verticalAlign=top;spacingLeft=4;spacingRight=4;overflow=hidden;rotatable=0;points=[[0,0.5],[1,0.5]];portConstraint=eastwest;whiteSpace=wrap;html=1;" parent="nOhS7p640s0jMjEh398m-29" vertex="1">
          <mxGeometry y="104" width="190" height="26" as="geometry" />
        </mxCell>
        <mxCell id="nOhS7p640s0jMjEh398m-31" value="" style="line;strokeWidth=1;fillColor=none;align=left;verticalAlign=middle;spacingTop=-1;spacingLeft=3;spacingRight=3;rotatable=0;labelPosition=right;points=[];portConstraint=eastwest;strokeColor=inherit;" parent="nOhS7p640s0jMjEh398m-29" vertex="1">
          <mxGeometry y="130" width="190" height="8" as="geometry" />
        </mxCell>
        <mxCell id="nOhS7p640s0jMjEh398m-32" value="+ condicionFinal(type): Integer" style="text;strokeColor=none;fillColor=none;align=left;verticalAlign=top;spacingLeft=4;spacingRight=4;overflow=hidden;rotatable=0;points=[[0,0.5],[1,0.5]];portConstraint=eastwest;whiteSpace=wrap;html=1;fontStyle=2" parent="nOhS7p640s0jMjEh398m-29" vertex="1">
          <mxGeometry y="138" width="190" height="26" as="geometry" />
        </mxCell>
        <mxCell id="nOhS7p640s0jMjEh398m-33" value="Aula" style="swimlane;fontStyle=1;align=center;verticalAlign=top;childLayout=stackLayout;horizontal=1;startSize=26;horizontalStack=0;resizeParent=1;resizeParentMax=0;resizeLast=0;collapsible=1;marginBottom=0;whiteSpace=wrap;html=1;" parent="WIyWlLk6GJQsqaUBKTNV-1" vertex="1">
          <mxGeometry x="50" y="810" width="160" height="112" as="geometry" />
        </mxCell>
        <mxCell id="nOhS7p640s0jMjEh398m-34" value="+ cantDeAlum: Integer" style="text;strokeColor=none;fillColor=none;align=left;verticalAlign=top;spacingLeft=4;spacingRight=4;overflow=hidden;rotatable=0;points=[[0,0.5],[1,0.5]];portConstraint=eastwest;whiteSpace=wrap;html=1;" parent="nOhS7p640s0jMjEh398m-33" vertex="1">
          <mxGeometry y="26" width="160" height="26" as="geometry" />
        </mxCell>
        <mxCell id="nOhS7p640s0jMjEh398m-50" value="+ numDeAula: Integer" style="text;strokeColor=none;fillColor=none;align=left;verticalAlign=top;spacingLeft=4;spacingRight=4;overflow=hidden;rotatable=0;points=[[0,0.5],[1,0.5]];portConstraint=eastwest;whiteSpace=wrap;html=1;" parent="nOhS7p640s0jMjEh398m-33" vertex="1">
          <mxGeometry y="52" width="160" height="26" as="geometry" />
        </mxCell>
        <mxCell id="nOhS7p640s0jMjEh398m-35" value="" style="line;strokeWidth=1;fillColor=none;align=left;verticalAlign=middle;spacingTop=-1;spacingLeft=3;spacingRight=3;rotatable=0;labelPosition=right;points=[];portConstraint=eastwest;strokeColor=inherit;" parent="nOhS7p640s0jMjEh398m-33" vertex="1">
          <mxGeometry y="78" width="160" height="8" as="geometry" />
        </mxCell>
        <mxCell id="nOhS7p640s0jMjEh398m-36" value="+ method(type): type" style="text;strokeColor=none;fillColor=none;align=left;verticalAlign=top;spacingLeft=4;spacingRight=4;overflow=hidden;rotatable=0;points=[[0,0.5],[1,0.5]];portConstraint=eastwest;whiteSpace=wrap;html=1;" parent="nOhS7p640s0jMjEh398m-33" vertex="1">
          <mxGeometry y="86" width="160" height="26" as="geometry" />
        </mxCell>
        <mxCell id="nOhS7p640s0jMjEh398m-37" value="CursoProfe" style="swimlane;fontStyle=1;align=center;verticalAlign=top;childLayout=stackLayout;horizontal=1;startSize=26;horizontalStack=0;resizeParent=1;resizeParentMax=0;resizeLast=0;collapsible=1;marginBottom=0;whiteSpace=wrap;html=1;" parent="WIyWlLk6GJQsqaUBKTNV-1" vertex="1">
          <mxGeometry x="520" y="950" width="160" height="112" as="geometry" />
        </mxCell>
        <mxCell id="nOhS7p640s0jMjEh398m-54" value="+ profe: Profesor" style="text;strokeColor=none;fillColor=none;align=left;verticalAlign=top;spacingLeft=4;spacingRight=4;overflow=hidden;rotatable=0;points=[[0,0.5],[1,0.5]];portConstraint=eastwest;whiteSpace=wrap;html=1;" parent="nOhS7p640s0jMjEh398m-37" vertex="1">
          <mxGeometry y="26" width="160" height="26" as="geometry" />
        </mxCell>
        <mxCell id="nOhS7p640s0jMjEh398m-38" value="+ curso:Curso&amp;nbsp;" style="text;strokeColor=none;fillColor=none;align=left;verticalAlign=top;spacingLeft=4;spacingRight=4;overflow=hidden;rotatable=0;points=[[0,0.5],[1,0.5]];portConstraint=eastwest;whiteSpace=wrap;html=1;" parent="nOhS7p640s0jMjEh398m-37" vertex="1">
          <mxGeometry y="52" width="160" height="26" as="geometry" />
        </mxCell>
        <mxCell id="nOhS7p640s0jMjEh398m-39" value="" style="line;strokeWidth=1;fillColor=none;align=left;verticalAlign=middle;spacingTop=-1;spacingLeft=3;spacingRight=3;rotatable=0;labelPosition=right;points=[];portConstraint=eastwest;strokeColor=inherit;" parent="nOhS7p640s0jMjEh398m-37" vertex="1">
          <mxGeometry y="78" width="160" height="8" as="geometry" />
        </mxCell>
        <mxCell id="nOhS7p640s0jMjEh398m-40" value="+ method(type): type" style="text;strokeColor=none;fillColor=none;align=left;verticalAlign=top;spacingLeft=4;spacingRight=4;overflow=hidden;rotatable=0;points=[[0,0.5],[1,0.5]];portConstraint=eastwest;whiteSpace=wrap;html=1;" parent="nOhS7p640s0jMjEh398m-37" vertex="1">
          <mxGeometry y="86" width="160" height="26" as="geometry" />
        </mxCell>
        <mxCell id="nOhS7p640s0jMjEh398m-62" value="Composiocion:&amp;nbsp; la destruccion del objeto conlleva la destruccion de sus compuesto&lt;br&gt;(hacer un new adentro de la clase)&lt;br&gt;&lt;br&gt;agregacion: la destruccion del objeto no conlleva a la destruccion de sus compuesto" style="text;html=1;strokeColor=none;fillColor=none;align=center;verticalAlign=middle;whiteSpace=wrap;rounded=0;" parent="WIyWlLk6GJQsqaUBKTNV-1" vertex="1">
          <mxGeometry x="-10" y="1002" width="307" height="100" as="geometry" />
        </mxCell>
        <mxCell id="nOhS7p640s0jMjEh398m-64" value="1 profe cada 20 alumnos inscripto" style="text;html=1;strokeColor=none;fillColor=none;align=center;verticalAlign=middle;whiteSpace=wrap;rounded=0;" parent="WIyWlLk6GJQsqaUBKTNV-1" vertex="1">
          <mxGeometry x="820" y="481" width="220" height="129" as="geometry" />
        </mxCell>
        <mxCell id="Z_7Ps_ruIOWtPHT-ZNbl-0" value="Universidad" style="swimlane;fontStyle=1;align=center;verticalAlign=top;childLayout=stackLayout;horizontal=1;startSize=26;horizontalStack=0;resizeParent=1;resizeParentMax=0;resizeLast=0;collapsible=1;marginBottom=0;whiteSpace=wrap;html=1;" vertex="1" parent="WIyWlLk6GJQsqaUBKTNV-1">
          <mxGeometry x="860" y="920" width="430" height="242" as="geometry" />
        </mxCell>
        <mxCell id="Z_7Ps_ruIOWtPHT-ZNbl-1" value="+ nombre: String" style="text;strokeColor=none;fillColor=none;align=left;verticalAlign=top;spacingLeft=4;spacingRight=4;overflow=hidden;rotatable=0;points=[[0,0.5],[1,0.5]];portConstraint=eastwest;whiteSpace=wrap;html=1;" vertex="1" parent="Z_7Ps_ruIOWtPHT-ZNbl-0">
          <mxGeometry y="26" width="430" height="26" as="geometry" />
        </mxCell>
        <mxCell id="Z_7Ps_ruIOWtPHT-ZNbl-4" value="+ listaDeAlumno: List&amp;lt;Alumno&amp;gt;" style="text;strokeColor=none;fillColor=none;align=left;verticalAlign=top;spacingLeft=4;spacingRight=4;overflow=hidden;rotatable=0;points=[[0,0.5],[1,0.5]];portConstraint=eastwest;whiteSpace=wrap;html=1;" vertex="1" parent="Z_7Ps_ruIOWtPHT-ZNbl-0">
          <mxGeometry y="52" width="430" height="26" as="geometry" />
        </mxCell>
        <mxCell id="Z_7Ps_ruIOWtPHT-ZNbl-6" value="+ listaDeCurso: List&amp;lt;Curso&amp;gt;" style="text;strokeColor=none;fillColor=none;align=left;verticalAlign=top;spacingLeft=4;spacingRight=4;overflow=hidden;rotatable=0;points=[[0,0.5],[1,0.5]];portConstraint=eastwest;whiteSpace=wrap;html=1;" vertex="1" parent="Z_7Ps_ruIOWtPHT-ZNbl-0">
          <mxGeometry y="78" width="430" height="26" as="geometry" />
        </mxCell>
        <mxCell id="Z_7Ps_ruIOWtPHT-ZNbl-5" value="+ listaDeProfesores: List&amp;lt;Profesor&amp;gt;" style="text;strokeColor=none;fillColor=none;align=left;verticalAlign=top;spacingLeft=4;spacingRight=4;overflow=hidden;rotatable=0;points=[[0,0.5],[1,0.5]];portConstraint=eastwest;whiteSpace=wrap;html=1;" vertex="1" parent="Z_7Ps_ruIOWtPHT-ZNbl-0">
          <mxGeometry y="104" width="430" height="26" as="geometry" />
        </mxCell>
        <mxCell id="Z_7Ps_ruIOWtPHT-ZNbl-2" value="" style="line;strokeWidth=1;fillColor=none;align=left;verticalAlign=middle;spacingTop=-1;spacingLeft=3;spacingRight=3;rotatable=0;labelPosition=right;points=[];portConstraint=eastwest;strokeColor=inherit;" vertex="1" parent="Z_7Ps_ruIOWtPHT-ZNbl-0">
          <mxGeometry y="130" width="430" height="8" as="geometry" />
        </mxCell>
        <mxCell id="Z_7Ps_ruIOWtPHT-ZNbl-9" value="buscarAlumno(dni):Alumno" style="text;strokeColor=none;fillColor=none;align=left;verticalAlign=top;spacingLeft=4;spacingRight=4;overflow=hidden;rotatable=0;points=[[0,0.5],[1,0.5]];portConstraint=eastwest;whiteSpace=wrap;html=1;" vertex="1" parent="Z_7Ps_ruIOWtPHT-ZNbl-0">
          <mxGeometry y="138" width="430" height="26" as="geometry" />
        </mxCell>
        <mxCell id="Z_7Ps_ruIOWtPHT-ZNbl-19" value="buscarCurso(idCurso):Curso" style="text;strokeColor=none;fillColor=none;align=left;verticalAlign=top;spacingLeft=4;spacingRight=4;overflow=hidden;rotatable=0;points=[[0,0.5],[1,0.5]];portConstraint=eastwest;whiteSpace=wrap;html=1;" vertex="1" parent="Z_7Ps_ruIOWtPHT-ZNbl-0">
          <mxGeometry y="164" width="430" height="26" as="geometry" />
        </mxCell>
        <mxCell id="Z_7Ps_ruIOWtPHT-ZNbl-20" value="buscarProfesor(dniProfesor):Profesor" style="text;strokeColor=none;fillColor=none;align=left;verticalAlign=top;spacingLeft=4;spacingRight=4;overflow=hidden;rotatable=0;points=[[0,0.5],[1,0.5]];portConstraint=eastwest;whiteSpace=wrap;html=1;" vertex="1" parent="Z_7Ps_ruIOWtPHT-ZNbl-0">
          <mxGeometry y="190" width="430" height="26" as="geometry" />
        </mxCell>
        <mxCell id="Z_7Ps_ruIOWtPHT-ZNbl-3" value="incribeAlumnoACurso (idCurso,dni alumno,ciclo lectivo,dia,horario):Boolean" style="text;strokeColor=none;fillColor=none;align=left;verticalAlign=top;spacingLeft=4;spacingRight=4;overflow=hidden;rotatable=0;points=[[0,0.5],[1,0.5]];portConstraint=eastwest;whiteSpace=wrap;html=1;" vertex="1" parent="Z_7Ps_ruIOWtPHT-ZNbl-0">
          <mxGeometry y="216" width="430" height="26" as="geometry" />
        </mxCell>
        <mxCell id="Z_7Ps_ruIOWtPHT-ZNbl-7" value="alum incribeCurso (cod materia,dni alumno,ciclo lectivo,dia,horario):Boolean&lt;br&gt;(universidad)buscarAlumno(dni):Boolean&lt;br&gt;&lt;br&gt;curso 1)buscar materia(codMateria,dia,horario,cicloLectivo):boolean" style="text;html=1;strokeColor=none;fillColor=none;align=center;verticalAlign=middle;whiteSpace=wrap;rounded=0;" vertex="1" parent="WIyWlLk6GJQsqaUBKTNV-1">
          <mxGeometry x="1170" y="644" width="270" height="176" as="geometry" />
        </mxCell>
        <mxCell id="Z_7Ps_ruIOWtPHT-ZNbl-13" value="1-aprobado&lt;br&gt;0-desaprobado&lt;br&gt;-1-final" style="text;html=1;strokeColor=none;fillColor=none;align=center;verticalAlign=middle;whiteSpace=wrap;rounded=0;" vertex="1" parent="WIyWlLk6GJQsqaUBKTNV-1">
          <mxGeometry x="850" y="570" width="180" height="30" as="geometry" />
        </mxCell>
        <mxCell id="Z_7Ps_ruIOWtPHT-ZNbl-14" value="aprobado- parcial 1 &amp;gt; 7 y&lt;br&gt;parcial 2&amp;gt;7&lt;br&gt;parcial1 &amp;gt;7 y &lt;br&gt;recuperatoria2 &amp;gt;=7&lt;br&gt;parcial 2 &amp;gt;=7 y&amp;nbsp;&lt;br&gt;recuperatorio 1&amp;gt;=7" style="text;html=1;strokeColor=none;fillColor=none;align=center;verticalAlign=middle;whiteSpace=wrap;rounded=0;" vertex="1" parent="WIyWlLk6GJQsqaUBKTNV-1">
          <mxGeometry x="1040" y="475" width="250" height="110" as="geometry" />
        </mxCell>
      </root>
    </mxGraphModel>
  </diagram>
</mxfile>
